<svg width="44" height="44" viewBox="0 0 44 44" fill="none" xmlns="http://www.w3.org/2000/svg">
<path d="M16.5001 21.5415C15.2351 21.5415 14.2084 22.5682 14.2084 23.8332C14.2084 25.0982 15.2351 26.1248 16.5001 26.1248C17.7651 26.1248 18.7917 25.0982 18.7917 23.8332C18.7917 22.5682 17.7651 21.5415 16.5001 21.5415ZM27.5001 21.5415C26.2351 21.5415 25.2084 22.5682 25.2084 23.8332C25.2084 25.0982 26.2351 26.1248 27.5001 26.1248C28.7651 26.1248 29.7917 25.0982 29.7917 23.8332C29.7917 22.5682 28.7651 21.5415 27.5001 21.5415ZM22.0001 3.6665C11.8801 3.6665 3.66675 11.8798 3.66675 21.9998C3.66675 32.1198 11.8801 40.3332 22.0001 40.3332C32.1201 40.3332 40.3334 32.1198 40.3334 21.9998C40.3334 11.8798 32.1201 3.6665 22.0001 3.6665ZM22.0001 36.6665C13.9151 36.6665 7.33341 30.0848 7.33341 21.9998C7.33341 21.4682 7.37008 20.9365 7.42508 20.4232C11.7517 18.4982 15.1801 14.9598 16.9767 10.5782C20.2951 15.2715 25.7584 18.3332 31.9367 18.3332C33.3667 18.3332 34.7417 18.1682 36.0617 17.8565C36.4468 19.1582 36.6667 20.5515 36.6667 21.9998C36.6667 30.0848 30.0851 36.6665 22.0001 36.6665Z" fill="black" fill-opacity="0.87"/>
</svg>
