<svg width="647" height="350" viewBox="0 0 647 350" fill="none" xmlns="http://www.w3.org/2000/svg">
<path d="M102.5 25.905L112.027 31.5L109.499 20.955L117.917 13.86L106.832 12.945L102.5 3L98.1678 12.945L87.0833 13.86L95.5008 20.955L92.9724 31.5L102.5 25.905Z" fill="black" fill-opacity="0.87"/>
<path d="M140 25.905L149.27 31.5L146.81 20.955L155 13.86L144.215 12.945L140 3L135.785 12.945L125 13.86L133.19 20.955L130.73 31.5L140 25.905Z" fill="black" fill-opacity="0.87"/>
<path d="M192.917 13.86L181.832 12.93L177.5 3L173.168 12.945L162.083 13.86L170.501 20.955L167.972 31.5L177.5 25.905L187.027 31.5L184.514 20.955L192.917 13.86ZM177.5 23.1V9.15L180.136 15.21L186.889 15.78L181.77 20.1L183.312 26.52L177.5 23.1Z" fill="black" fill-opacity="0.87"/>
<ellipse cx="28" cy="33" rx="28" ry="29" fill="white"/>
<mask id="mask0_100_174" style="mask-type:alpha" maskUnits="userSpaceOnUse" x="1" y="7" width="55" height="56">
<ellipse cx="28.3182" cy="34.6113" rx="27.0455" ry="27.3889" fill="#C1C1C1"/>
</mask>
<g mask="url(#mask0_100_174)">
<ellipse cx="28.3183" cy="56.2" rx="21.9545" ry="21.2667" fill="#C1C1C1"/>
</g>
<ellipse cx="28" cy="23.3332" rx="9.54545" ry="9.66667" fill="#C1C1C1"/>
<path d="M95.92 60.18C94.9733 60.18 94.0667 60.0333 93.2 59.74C92.3333 59.4467 91.6067 59.0267 91.02 58.48L91.64 57.2C92.2933 57.7333 92.9667 58.12 93.66 58.36C94.3533 58.6 95.1 58.72 95.9 58.72C96.9533 58.72 97.7533 58.5 98.3 58.06C98.8467 57.6067 99.12 56.9467 99.12 56.08C99.12 55.2533 98.84 54.6267 98.28 54.2C97.72 53.76 96.9 53.54 95.82 53.54H93.7V52.16H95.68C96.6133 52.16 97.3533 51.92 97.9 51.44C98.4467 50.96 98.72 50.3067 98.72 49.48C98.72 48.7333 98.4667 48.1667 97.96 47.78C97.4667 47.38 96.7533 47.18 95.82 47.18C94.3 47.18 92.9867 47.72 91.88 48.8L91.26 47.5C91.8067 46.94 92.4933 46.5067 93.32 46.2C94.1467 45.88 95.0133 45.72 95.92 45.72C97.3067 45.72 98.3933 46.04 99.18 46.68C99.9667 47.32 100.36 48.2067 100.36 49.34C100.36 50.2067 100.113 50.9533 99.62 51.58C99.1267 52.1933 98.46 52.6133 97.62 52.84V52.62C98.62 52.78 99.3933 53.18 99.94 53.82C100.487 54.4467 100.76 55.24 100.76 56.2C100.76 57.4267 100.327 58.4 99.46 59.12C98.6067 59.8267 97.4267 60.18 95.92 60.18ZM116.492 43.48H118.152V56.88H116.492V43.48ZM111.392 45.84H117.112V47.18H111.392V45.84ZM106.592 59.8H118.632V61.16H106.592V59.8ZM106.592 55.72H108.252V60.42H106.592V55.72ZM104.332 44.8H105.992V53.32H104.332V44.8ZM104.332 52.8H105.692C108.272 52.8 110.692 52.66 113.512 52.16L113.672 53.54C110.772 54.06 108.352 54.18 105.692 54.18H104.332V52.8ZM111.392 49.28H117.112V50.64H111.392V49.28ZM132.765 60.18C132.152 60.18 131.552 60.1133 130.965 59.98C130.379 59.8467 129.825 59.6533 129.305 59.4C128.799 59.1467 128.352 58.84 127.965 58.48L128.585 57.2C129.239 57.72 129.905 58.1067 130.585 58.36C131.265 58.6 131.992 58.72 132.765 58.72C133.779 58.72 134.572 58.4467 135.145 57.9C135.719 57.3533 136.005 56.6333 136.005 55.74C136.005 54.82 135.732 54.0667 135.185 53.48C134.639 52.8933 133.879 52.6 132.905 52.6C132.212 52.6 131.592 52.74 131.045 53.02C130.499 53.2867 130.025 53.7067 129.625 54.28H128.425V45.9H136.785V47.3H130.025V52.92H129.585C129.945 52.36 130.439 51.9333 131.065 51.64C131.705 51.3333 132.425 51.18 133.225 51.18C134.132 51.18 134.912 51.3667 135.565 51.74C136.232 52.1133 136.745 52.6333 137.105 53.3C137.465 53.9667 137.645 54.7467 137.645 55.64C137.645 56.5333 137.445 57.3267 137.045 58.02C136.659 58.7 136.099 59.2333 135.365 59.62C134.645 59.9933 133.779 60.18 132.765 60.18ZM153.518 43.48H155.118V61.56H153.518V43.48ZM150.598 50.74H154.058V52.1H150.598V50.74ZM145.918 45.8H147.518C147.518 50.46 145.918 54.78 140.758 57.68L139.778 56.5C144.318 53.96 145.918 50.3 145.918 46.12V45.8ZM140.478 45.8H146.478V47.18H140.478V45.8ZM149.498 43.96H151.078V60.68H149.498V43.96ZM163.336 50.96H164.996V54.18H163.336V50.96ZM171.636 43.48H173.296V54.12H171.636V43.48ZM158.636 51.52L158.436 50.28C161.916 50.28 166.336 50.26 170.196 49.82L170.296 50.9C166.336 51.48 162.016 51.52 158.636 51.52ZM161.176 54.78H173.296V58.54H162.836V60.58H161.216V57.44H171.656V55.98H161.176V54.78ZM161.216 60.16H173.896V61.36H161.216V60.16ZM168.036 52.08H172.156V53.16H168.036V52.08ZM164.276 43.82C166.956 43.82 168.716 44.86 168.716 46.54C168.716 48.22 166.956 49.26 164.276 49.26C161.576 49.26 159.816 48.22 159.816 46.54C159.816 44.86 161.576 43.82 164.276 43.82ZM164.276 44.98C162.496 44.98 161.356 45.58 161.356 46.54C161.356 47.5 162.496 48.1 164.276 48.1C166.016 48.1 167.156 47.5 167.156 46.54C167.156 45.58 166.016 44.98 164.276 44.98ZM187.129 45.04H188.489V48.28C188.489 52.28 186.329 56.18 183.469 57.7L182.449 56.38C185.069 55.06 187.129 51.58 187.129 48.28V45.04ZM187.429 45.04H188.769V48.28C188.769 51.46 190.789 54.76 193.349 56.04L192.329 57.36C189.529 55.86 187.429 52.16 187.429 48.28V45.04ZM194.929 43.48H196.609V61.56H194.929V43.48ZM196.209 50.8H199.569V52.2H196.209V50.8ZM205.428 49.6H207.068V53.02H205.428V49.6ZM212.068 49.6H213.708V53.02H212.068V49.6ZM201.388 52.42H217.728V53.76H201.388V52.42ZM209.548 55.12C213.428 55.12 215.748 56.26 215.748 58.32C215.748 60.38 213.428 61.54 209.548 61.54C205.668 61.54 203.348 60.38 203.348 58.32C203.348 56.26 205.668 55.12 209.548 55.12ZM209.548 56.4C206.728 56.4 205.028 57.1 205.028 58.32C205.028 59.56 206.728 60.24 209.548 60.24C212.388 60.24 214.068 59.56 214.068 58.32C214.068 57.1 212.388 56.4 209.548 56.4ZM209.568 43.8C213.488 43.8 215.928 45.06 215.928 47.18C215.928 49.28 213.488 50.52 209.568 50.52C205.628 50.52 203.208 49.28 203.208 47.18C203.208 45.06 205.628 43.8 209.568 43.8ZM209.568 45.1C206.688 45.1 204.908 45.86 204.908 47.18C204.908 48.48 206.688 49.24 209.568 49.24C212.448 49.24 214.228 48.48 214.228 47.18C214.228 45.86 212.448 45.1 209.568 45.1ZM224.566 46.06H225.886V49C225.886 52.76 223.586 56.64 220.766 58.08L219.806 56.76C222.386 55.5 224.566 52.06 224.566 49V46.06ZM224.866 46.06H226.186V49C226.186 51.86 228.226 55.08 230.846 56.32L229.906 57.64C227.046 56.22 224.866 52.58 224.866 49V46.06ZM220.446 45.32H230.186V46.72H220.446V45.32ZM232.326 43.48H234.006V61.56H232.326V43.48ZM233.606 50.78H236.966V52.18H233.606V50.78Z" fill="black"/>
<path d="M153.54 184V182.58H156.86V171.32H157.74L153.86 173.74V172.08L157.32 169.9H158.52V182.58H161.64V184H153.54ZM165.092 174.56H166.492C170.132 174.56 172.272 174.44 174.752 173.94L174.952 175.28C172.392 175.8 170.192 175.92 166.492 175.92H165.092V174.56ZM165.092 168.52H173.072V169.86H166.732V175.36H165.092V168.52ZM176.652 167.48H178.312V176.58H176.652V167.48ZM177.852 171.28H180.992V172.66H177.852V171.28ZM166.832 177.5H178.312V181.96H168.512V184.76H166.872V180.68H176.692V178.82H166.832V177.5ZM166.872 183.98H178.972V185.32H166.872V183.98ZM201.665 167.48H203.325V185.56H201.665V167.48ZM196.365 169.42H198.005C198.005 174.66 195.645 179.24 189.605 182.2L188.725 180.86C193.945 178.34 196.365 174.5 196.365 169.7V169.42ZM189.545 169.42H197.085V170.78H189.545V169.42ZM214.284 169.18H215.764V169.72C215.764 172.78 212.504 174.92 208.804 175.48L208.184 174.14C211.384 173.72 214.284 171.92 214.284 169.72V169.18ZM214.984 169.18H216.444V169.72C216.444 171.92 219.364 173.72 222.564 174.14L221.924 175.48C218.244 174.92 214.984 172.78 214.984 169.72V169.18ZM208.684 168.38H222.064V169.72H208.684V168.38ZM207.184 176.78H223.564V178.14H207.184V176.78ZM214.664 177.62H216.324V181.78H214.664V177.62ZM209.264 183.8H221.744V185.16H209.264V183.8ZM209.264 180.04H210.904V184.32H209.264V180.04ZM232.957 184V182.58H236.277V171.32H237.157L233.277 173.74V172.08L236.737 169.9H237.937V182.58H241.057V184H232.957ZM244.429 184V182.76L249.429 177.54C250.083 176.86 250.569 176.213 250.889 175.6C251.223 174.973 251.389 174.327 251.389 173.66C251.389 172.847 251.136 172.233 250.629 171.82C250.123 171.393 249.389 171.18 248.429 171.18C247.683 171.18 246.989 171.313 246.349 171.58C245.723 171.833 245.116 172.24 244.529 172.8L243.929 171.5C244.463 170.967 245.143 170.54 245.969 170.22C246.796 169.887 247.669 169.72 248.589 169.72C250.016 169.72 251.116 170.053 251.889 170.72C252.663 171.373 253.049 172.307 253.049 173.52C253.049 174.413 252.829 175.267 252.389 176.08C251.963 176.88 251.336 177.707 250.509 178.56L246.089 183.04V182.58H253.649V184H244.429ZM256.742 169.1H265.042V177.48H256.742V169.1ZM263.422 170.44H258.362V176.14H263.422V170.44ZM268.362 167.46H270.022V180.72H268.362V167.46ZM269.502 172.98H272.702V174.36H269.502V172.98ZM258.762 183.8H270.842V185.16H258.762V183.8ZM258.762 179.46H260.422V184.38H258.762V179.46ZM279.82 176.58H281.48V180.6H279.82V176.58ZM287.84 167.48H289.5V181.24H287.84V167.48ZM277.16 183.8H289.94V185.16H277.16V183.8ZM277.16 179.9H278.82V184.18H277.16V179.9ZM274.82 177.2L274.6 175.84C277.94 175.84 282.42 175.8 286.26 175.3L286.38 176.52C282.48 177.14 278.1 177.2 274.82 177.2ZM284.16 178.16H288.26V179.38H284.16V178.16ZM280.48 168.22C283.12 168.22 284.92 169.46 284.92 171.36C284.92 173.28 283.12 174.52 280.48 174.52C277.82 174.52 276.02 173.28 276.02 171.36C276.02 169.46 277.82 168.22 280.48 168.22ZM280.48 169.46C278.78 169.46 277.6 170.2 277.6 171.36C277.6 172.52 278.78 173.26 280.48 173.26C282.16 173.26 283.34 172.52 283.34 171.36C283.34 170.2 282.16 169.46 280.48 169.46Z" fill="black"/>
<path d="M230.42 223.04H231.78V226.28C231.78 230.28 229.62 234.18 226.76 235.7L225.74 234.38C228.36 233.06 230.42 229.58 230.42 226.28V223.04ZM230.72 223.04H232.06V226.28C232.06 229.46 234.08 232.76 236.64 234.04L235.62 235.36C232.82 233.86 230.72 230.16 230.72 226.28V223.04ZM238.22 221.48H239.9V239.56H238.22V221.48ZM239.5 228.8H242.86V230.2H239.5V228.8ZM257.818 221.46H259.478V239.58H257.818V221.46ZM249.938 222.86C252.618 222.86 254.538 225.32 254.538 229.16C254.538 233.02 252.618 235.48 249.938 235.48C247.278 235.48 245.358 233.02 245.358 229.16C245.358 225.32 247.278 222.86 249.938 222.86ZM249.938 224.36C248.178 224.36 246.938 226.24 246.938 229.16C246.938 232.1 248.178 234.02 249.938 234.02C251.718 234.02 252.938 232.1 252.938 229.16C252.938 226.24 251.718 224.36 249.938 224.36ZM265.477 222.32H277.117V223.66H265.477V222.32ZM276.037 222.32H277.657V223.72C277.657 225.22 277.657 227 277.137 229.38L275.497 229.2C276.037 226.86 276.037 225.2 276.037 223.72V222.32ZM276.497 225.38V226.56L265.237 227.06L265.017 225.74L276.497 225.38ZM263.397 228.88H279.717V230.2H263.397V228.88ZM265.297 231.92H277.797V236.14H266.977V238.58H265.337V234.9H276.157V233.2H265.297V231.92ZM265.337 238.02H278.417V239.32H265.337V238.02ZM295.215 221.46H296.875V239.58H295.215V221.46ZM287.335 222.86C290.015 222.86 291.935 225.32 291.935 229.16C291.935 233.02 290.015 235.48 287.335 235.48C284.675 235.48 282.755 233.02 282.755 229.16C282.755 225.32 284.675 222.86 287.335 222.86ZM287.335 224.36C285.575 224.36 284.335 226.24 284.335 229.16C284.335 232.1 285.575 234.02 287.335 234.02C289.115 234.02 290.335 232.1 290.335 229.16C290.335 226.24 289.115 224.36 287.335 224.36ZM308.369 232.08H309.929V234.34H313.089V232.08H314.629V239.32H308.369V232.08ZM309.929 235.58V238.02H313.089V235.58H309.929ZM318.129 231.98H319.409V233.48C319.409 235.94 318.169 238.42 315.669 239.48L314.829 238.22C317.009 237.3 318.129 235.32 318.129 233.48V231.98ZM318.469 231.98H319.749V233.48C319.749 235.42 320.869 237.38 323.049 238.22L322.209 239.48C319.689 238.44 318.469 236.04 318.469 233.48V231.98ZM315.389 225.72H320.249V227.1H315.389V225.72ZM311.229 222.28C313.929 222.28 315.889 223.96 315.889 226.44C315.889 228.9 313.929 230.6 311.229 230.6C308.529 230.6 306.569 228.9 306.569 226.44C306.569 223.96 308.529 222.28 311.229 222.28ZM311.229 223.66C309.449 223.66 308.169 224.8 308.169 226.44C308.169 228.06 309.449 229.22 311.229 229.22C313.009 229.22 314.289 228.06 314.289 226.44C314.289 224.8 313.009 223.66 311.229 223.66ZM319.509 221.48H321.169V231.06H319.509V221.48ZM329.827 222.86C332.447 222.86 334.327 225.32 334.327 229.16C334.327 233.02 332.447 235.48 329.827 235.48C327.187 235.48 325.327 233.02 325.327 229.16C325.327 225.32 327.187 222.86 329.827 222.86ZM329.827 224.36C328.087 224.36 326.907 226.24 326.907 229.16C326.907 232.1 328.087 234.02 329.827 234.02C331.567 234.02 332.747 232.1 332.747 229.16C332.747 226.24 331.567 224.36 329.827 224.36ZM338.247 221.46H339.887V239.58H338.247V221.46ZM333.787 228.36H338.967V229.72H333.787V228.36ZM352.725 227.6H357.765V228.96H352.725V227.6ZM348.365 223.04H349.725V226.26C349.725 230.32 347.585 234.2 344.725 235.74L343.665 234.42C346.325 233.1 348.365 229.62 348.365 226.26V223.04ZM348.685 223.04H350.025V226.26C350.025 229.56 352.065 232.84 354.685 234.08L353.705 235.42C350.785 233.94 348.685 230.22 348.685 226.26V223.04ZM356.945 221.46H358.585V239.58H356.945V221.46ZM375.239 227.9H376.879V231.26H375.239V227.9ZM367.899 230.48H384.239V231.82H367.899V230.48ZM376.059 233.3C379.939 233.3 382.259 234.42 382.259 236.42C382.259 238.42 379.939 239.52 376.059 239.52C372.179 239.52 369.859 238.42 369.859 236.42C369.859 234.42 372.179 233.3 376.059 233.3ZM376.059 234.58C373.219 234.58 371.539 235.24 371.539 236.42C371.539 237.6 373.219 238.24 376.059 238.24C378.919 238.24 380.579 237.6 380.579 236.42C380.579 235.24 378.919 234.58 376.059 234.58ZM374.999 222.96H376.479V223.5C376.479 226.4 373.159 228.36 369.399 228.82L368.799 227.48C372.059 227.16 374.999 225.54 374.999 223.5V222.96ZM375.699 222.96H377.159V223.5C377.159 225.54 380.099 227.16 383.359 227.48L382.759 228.82C379.019 228.36 375.699 226.4 375.699 223.5V222.96ZM369.399 222.3H382.779V223.64H369.399V222.3ZM386.597 232.24H402.997V233.6H386.597V232.24ZM390.837 232.98H392.517V239.56H390.837V232.98ZM397.057 232.98H398.717V239.56H397.057V232.98ZM388.557 222.18H400.997V226.84H390.277V229.94H388.597V225.56H399.337V223.52H388.557V222.18ZM388.597 229.06H401.417V230.4H388.597V229.06ZM417.536 221.46H419.216V239.56H417.536V221.46ZM418.756 228.8H422.096V230.18H418.756V228.8ZM412.916 223.42H414.536C414.536 228.56 412.176 233.2 406.336 236.14L405.416 234.86C410.416 232.32 412.916 228.46 412.916 223.68V223.42ZM406.256 223.42H413.776V224.78H406.256V223.42ZM441.749 221.46H443.429V239.58H441.749V221.46ZM443.029 228.6H446.389V230H443.029V228.6ZM430.289 233.68H431.709C435.049 233.68 437.389 233.56 440.089 233.06L440.269 234.46C437.489 234.98 435.109 235.08 431.709 235.08H430.289V233.68ZM430.289 223.22H438.689V224.58H431.929V234.3H430.289V223.22ZM461.747 224.18H464.887V225.56H461.747V224.18ZM461.747 228.02H464.887V229.4H461.747V228.02ZM453.267 222.54C455.987 222.54 457.987 224.3 457.987 226.82C457.987 229.32 455.987 231.06 453.267 231.06C450.547 231.06 448.547 229.32 448.547 226.82C448.547 224.3 450.547 222.54 453.267 222.54ZM453.267 223.94C451.467 223.94 450.167 225.12 450.167 226.82C450.167 228.52 451.467 229.68 453.267 229.68C455.067 229.68 456.367 228.52 456.367 226.82C456.367 225.12 455.067 223.94 453.267 223.94ZM460.587 221.48H462.247V232.18H460.587V221.48ZM456.487 232.76C460.167 232.76 462.427 234.02 462.427 236.14C462.427 238.28 460.167 239.52 456.487 239.52C452.807 239.52 450.547 238.28 450.547 236.14C450.547 234.02 452.807 232.76 456.487 232.76ZM456.487 234.1C453.807 234.1 452.167 234.84 452.167 236.14C452.167 237.44 453.807 238.2 456.487 238.2C459.167 238.2 460.807 237.44 460.807 236.14C460.807 234.84 459.167 234.1 456.487 234.1ZM479.166 221.48H480.826V239.56H479.166V221.48ZM480.426 228.9H483.786V230.3H480.426V228.9ZM466.826 224.36H477.486V225.72H466.826V224.36ZM472.226 227.22C474.786 227.22 476.626 228.94 476.626 231.38C476.626 233.82 474.786 235.54 472.226 235.54C469.686 235.54 467.826 233.82 467.826 231.38C467.826 228.94 469.686 227.22 472.226 227.22ZM472.226 228.6C470.586 228.6 469.406 229.74 469.406 231.38C469.406 233 470.586 234.16 472.226 234.16C473.866 234.16 475.046 233 475.046 231.38C475.046 229.74 473.866 228.6 472.226 228.6ZM471.366 221.7H473.026V224.98H471.366V221.7ZM490.424 223.46H491.804V225.3C491.804 228.62 489.764 231.4 486.724 232.5L485.864 231.18C488.584 230.22 490.424 227.88 490.424 225.3V223.46ZM490.744 223.46H492.124V225.3C492.124 227.74 494.004 229.94 496.684 230.84L495.824 232.14C492.824 231.12 490.744 228.48 490.744 225.3V223.46ZM486.304 222.98H496.204V224.32H486.304V222.98ZM498.764 221.5H500.444V234.72H498.764V221.5ZM488.824 237.8H500.984V239.16H488.824V237.8ZM488.824 233.48H490.464V238.4H488.824V233.48ZM514.817 222.5C517.517 222.5 519.497 224.22 519.497 226.68C519.497 229.14 517.517 230.86 514.817 230.86C512.137 230.86 510.157 229.14 510.157 226.68C510.157 224.22 512.137 222.5 514.817 222.5ZM514.817 223.86C513.097 223.86 511.777 225.04 511.777 226.68C511.777 228.32 513.097 229.5 514.817 229.5C516.577 229.5 517.897 228.32 517.897 226.68C517.897 225.04 516.577 223.86 514.817 223.86ZM522.197 221.48H523.857V230.48H522.197V221.48ZM523.137 225.54H526.537V226.9H523.137V225.54ZM511.717 237.72H512.577C513.657 237.72 515.397 237.62 516.937 237.1L517.217 238.44C515.477 239 513.817 239.08 512.577 239.08H511.717V237.72ZM511.717 232.44H513.337V238.2H511.717V232.44ZM516.557 232.56H525.637V233.8H516.557V232.56ZM521.117 234.44C523.077 234.44 524.457 235.42 524.457 236.98C524.457 238.56 523.077 239.54 521.117 239.54C519.137 239.54 517.757 238.56 517.757 236.98C517.757 235.42 519.137 234.44 521.117 234.44ZM521.117 235.62C519.997 235.62 519.237 236.16 519.237 236.98C519.237 237.82 519.997 238.36 521.117 238.36C522.197 238.36 522.977 237.82 522.977 236.98C522.977 236.16 522.197 235.62 521.117 235.62ZM520.297 230.94H521.917V233.52H520.297V230.94ZM533.336 222.86C535.996 222.86 537.876 225.32 537.876 229.16C537.876 233.02 535.996 235.48 533.336 235.48C530.676 235.48 528.796 233.02 528.796 229.16C528.796 225.32 530.676 222.86 533.336 222.86ZM533.336 224.36C531.576 224.36 530.376 226.24 530.376 229.16C530.376 232.1 531.576 234.02 533.336 234.02C535.076 234.02 536.296 232.1 536.296 229.16C536.296 226.24 535.076 224.36 533.336 224.36ZM540.756 221.48H542.436V239.56H540.756V221.48ZM542.036 228.7H545.396V230.1H542.036V228.7ZM551.234 230.78H552.874V236.2H551.234V230.78ZM557.914 230.78H559.574V236.2H557.914V230.78ZM547.234 235.88H563.614V237.26H547.234V235.88ZM555.394 222.62C559.214 222.62 561.954 224.44 561.954 227.28C561.954 230.1 559.214 231.92 555.394 231.92C551.554 231.92 548.814 230.1 548.814 227.28C548.814 224.44 551.554 222.62 555.394 222.62ZM555.394 223.94C552.494 223.94 550.414 225.26 550.414 227.28C550.414 229.28 552.494 230.6 555.394 230.6C558.294 230.6 560.354 229.28 560.354 227.28C560.354 225.26 558.294 223.94 555.394 223.94ZM566.193 238V235.96H568.233V238H566.193Z" fill="black"/>
<path d="M159.32 283.5H162.74V284.88H159.32V283.5ZM165.76 276.48H167.36V294.56H165.76V276.48ZM162.18 276.86H163.76V293.66H162.18V276.86ZM156.06 277.98C158.4 277.98 159.92 280.4 159.92 284.28C159.92 288.16 158.4 290.58 156.06 290.58C153.72 290.58 152.22 288.16 152.22 284.28C152.22 280.4 153.72 277.98 156.06 277.98ZM156.06 279.52C154.64 279.52 153.74 281.36 153.74 284.28C153.74 287.2 154.64 289.04 156.06 289.04C157.5 289.04 158.4 287.2 158.4 284.28C158.4 281.36 157.5 279.52 156.06 279.52ZM175.518 277.86C178.138 277.86 180.018 280.32 180.018 284.16C180.018 288.02 178.138 290.48 175.518 290.48C172.878 290.48 171.018 288.02 171.018 284.16C171.018 280.32 172.878 277.86 175.518 277.86ZM175.518 279.36C173.778 279.36 172.598 281.24 172.598 284.16C172.598 287.1 173.778 289.02 175.518 289.02C177.258 289.02 178.438 287.1 178.438 284.16C178.438 281.24 177.258 279.36 175.518 279.36ZM183.938 276.46H185.578V294.58H183.938V276.46ZM179.478 283.36H184.658V284.72H179.478V283.36ZM198.657 282.24H202.897V283.6H198.657V282.24ZM196.997 277.92H198.697C198.697 282.64 196.317 286.12 190.517 288.08L189.857 286.74C195.017 285.06 196.997 282.18 196.997 278.52V277.92ZM190.677 277.92H197.977V279.28H190.677V277.92ZM196.977 281.36V282.54L190.057 283.06L189.777 281.7L196.977 281.36ZM202.597 276.48H204.257V289.92H202.597V276.48ZM192.917 292.8H204.797V294.16H192.917V292.8ZM192.917 288.58H194.577V293.58H192.917V288.58ZM216.255 276.78C220.235 276.78 222.615 277.9 222.615 279.92C222.615 281.94 220.235 283.06 216.255 283.06C212.255 283.06 209.895 281.94 209.895 279.92C209.895 277.9 212.255 276.78 216.255 276.78ZM216.255 278.04C213.295 278.04 211.595 278.72 211.595 279.92C211.595 281.12 213.295 281.8 216.255 281.8C219.195 281.8 220.895 281.12 220.895 279.92C220.895 278.72 219.195 278.04 216.255 278.04ZM208.075 284.26H224.415V285.6H208.075V284.26ZM210.055 287.14H222.335V291.22H211.735V293.42H210.095V290.02H220.695V288.42H210.055V287.14ZM210.095 293.06H222.875V294.36H210.095V293.06ZM239.429 282.94H242.889V284.32H239.429V282.94ZM236.049 278.18H237.349V281.62C237.349 285.4 235.769 289.06 233.129 290.68L232.089 289.42C234.569 287.96 236.049 284.72 236.049 281.62V278.18ZM236.369 278.18H237.649V281.56C237.649 284.46 239.009 287.54 241.389 288.98L240.429 290.28C237.829 288.68 236.369 285.08 236.369 281.56V278.18ZM246.069 276.48H247.669V294.56H246.069V276.48ZM242.409 276.86H243.969V293.66H242.409V276.86ZM264.767 276.48H266.367V294.56H264.767V276.48ZM256.927 283.86H261.487V285.2H256.927V283.86ZM261.007 276.94H262.567V293.64H261.007V276.94ZM257.147 278.76H258.747C258.747 283.5 256.847 287.76 251.967 290.66L250.987 289.48C255.247 286.92 257.147 283.32 257.147 279.06V278.76ZM251.787 278.76H257.767V280.12H251.787V278.76ZM277.36 282.28H289.62V283.48H277.36V282.28ZM277.36 276.94H289.54V278.14H279V282.84H277.36V276.94ZM278.52 279.58H289.06V280.74H278.52V279.58ZM275.22 284.82H291.54V286.1H275.22V284.82ZM277.18 287.48H289.46V291.44H278.86V293.68H277.22V290.26H287.82V288.7H277.18V287.48ZM277.22 293.14H290V294.36H277.22V293.14ZM298.739 277.86C301.359 277.86 303.239 280.32 303.239 284.16C303.239 288.02 301.359 290.48 298.739 290.48C296.099 290.48 294.239 288.02 294.239 284.16C294.239 280.32 296.099 277.86 298.739 277.86ZM298.739 279.36C296.999 279.36 295.819 281.24 295.819 284.16C295.819 287.1 296.999 289.02 298.739 289.02C300.479 289.02 301.659 287.1 301.659 284.16C301.659 281.24 300.479 279.36 298.739 279.36ZM307.159 276.46H308.799V294.58H307.159V276.46ZM302.699 283.36H307.879V284.72H302.699V283.36ZM319.857 278.26H321.297V279.02C321.297 282.26 317.857 284.64 314.217 285.26L313.577 283.94C316.757 283.48 319.857 281.4 319.857 279.02V278.26ZM320.277 278.26H321.697V279.02C321.697 281.4 324.817 283.48 327.977 283.94L327.357 285.26C323.697 284.64 320.277 282.26 320.277 279.02V278.26ZM319.917 287.66H321.557V294.56H319.917V287.66ZM312.617 286.78H328.957V288.14H312.617V286.78ZM314.137 277.6H327.377V278.94H314.137V277.6ZM336.096 279.06H337.436V282C337.436 285.82 335.136 289.66 332.256 291.08L331.296 289.76C333.916 288.52 336.096 285.12 336.096 282V279.06ZM336.416 279.06H337.756V282C337.756 285.06 339.936 288.18 342.596 289.32L341.656 290.64C338.736 289.28 336.416 285.76 336.416 282V279.06ZM331.896 278.32H341.996V279.72H331.896V278.32ZM344.436 276.48H346.096V294.56H344.436V276.48ZM360.509 277.5C363.209 277.5 365.189 279.22 365.189 281.68C365.189 284.14 363.209 285.86 360.509 285.86C357.829 285.86 355.849 284.14 355.849 281.68C355.849 279.22 357.829 277.5 360.509 277.5ZM360.509 278.86C358.789 278.86 357.469 280.04 357.469 281.68C357.469 283.32 358.789 284.5 360.509 284.5C362.269 284.5 363.589 283.32 363.589 281.68C363.589 280.04 362.269 278.86 360.509 278.86ZM367.889 276.48H369.549V285.48H367.889V276.48ZM368.829 280.54H372.229V281.9H368.829V280.54ZM357.409 292.72H358.269C359.349 292.72 361.089 292.62 362.629 292.1L362.909 293.44C361.169 294 359.509 294.08 358.269 294.08H357.409V292.72ZM357.409 287.44H359.029V293.2H357.409V287.44ZM362.249 287.56H371.329V288.8H362.249V287.56ZM366.809 289.44C368.769 289.44 370.149 290.42 370.149 291.98C370.149 293.56 368.769 294.54 366.809 294.54C364.829 294.54 363.449 293.56 363.449 291.98C363.449 290.42 364.829 289.44 366.809 289.44ZM366.809 290.62C365.689 290.62 364.929 291.16 364.929 291.98C364.929 292.82 365.689 293.36 366.809 293.36C367.889 293.36 368.669 292.82 368.669 291.98C368.669 291.16 367.889 290.62 366.809 290.62ZM365.989 285.94H367.609V288.52H365.989V285.94ZM379.027 277.86C381.687 277.86 383.567 280.32 383.567 284.16C383.567 288.02 381.687 290.48 379.027 290.48C376.367 290.48 374.487 288.02 374.487 284.16C374.487 280.32 376.367 277.86 379.027 277.86ZM379.027 279.36C377.267 279.36 376.067 281.24 376.067 284.16C376.067 287.1 377.267 289.02 379.027 289.02C380.767 289.02 381.987 287.1 381.987 284.16C381.987 281.24 380.767 279.36 379.027 279.36ZM386.447 276.48H388.127V294.56H386.447V276.48ZM387.727 283.7H391.087V285.1H387.727V283.7ZM401.946 282.6H406.986V283.96H401.946V282.6ZM397.586 278.04H398.946V281.26C398.946 285.32 396.806 289.2 393.946 290.74L392.886 289.42C395.546 288.1 397.586 284.62 397.586 281.26V278.04ZM397.906 278.04H399.246V281.26C399.246 284.56 401.286 287.84 403.906 289.08L402.926 290.42C400.006 288.94 397.906 285.22 397.906 281.26V278.04ZM406.166 276.46H407.806V294.58H406.166V276.46ZM424.459 285.16H426.099V287.92H424.459V285.16ZM419.299 276.76H420.939V278.44H429.679V276.76H431.339V282.72H419.299V276.76ZM420.939 279.72V281.44H429.679V279.72H420.939ZM417.119 284.2H433.459V285.54H417.119V284.2ZM419.099 287.3H431.379V291.32H420.779V293.56H419.139V290.12H429.739V288.56H419.099V287.3ZM419.139 293.08H431.919V294.36H419.139V293.08ZM436.577 278.1H444.877V286.48H436.577V278.1ZM443.257 279.44H438.197V285.14H443.257V279.44ZM448.197 276.46H449.857V289.72H448.197V276.46ZM449.337 281.98H452.537V283.36H449.337V281.98ZM438.597 292.8H450.677V294.16H438.597V292.8ZM438.597 288.46H440.257V293.38H438.597V288.46ZM467.656 276.46H469.316V294.58H467.656V276.46ZM459.776 277.86C462.456 277.86 464.376 280.32 464.376 284.16C464.376 288.02 462.456 290.48 459.776 290.48C457.116 290.48 455.196 288.02 455.196 284.16C455.196 280.32 457.116 277.86 459.776 277.86ZM459.776 279.36C458.016 279.36 456.776 281.24 456.776 284.16C456.776 287.1 458.016 289.02 459.776 289.02C461.556 289.02 462.776 287.1 462.776 284.16C462.776 281.24 461.556 279.36 459.776 279.36ZM477.834 287.5H479.134V288.54C479.134 290.94 477.654 293.34 475.054 294.34L474.214 293.1C476.494 292.26 477.834 290.3 477.834 288.54V287.5ZM478.214 287.5H479.454V288.54C479.454 290.38 480.514 292.36 482.694 293.24L481.994 294.5C479.374 293.48 478.214 290.96 478.214 288.54V287.5ZM484.534 287.5H485.754V288.54C485.754 290.68 484.574 293.4 481.994 294.5L481.274 293.24C483.434 292.24 484.534 290.12 484.534 288.54V287.5ZM484.854 287.5H486.154V288.54C486.154 290.44 487.474 292.32 489.794 293.1L488.934 294.34C486.314 293.38 484.854 291.06 484.854 288.54V287.5ZM482.114 281H486.894V282.38H482.114V281ZM478.154 277.5C480.814 277.5 482.794 279.24 482.794 281.74C482.794 284.22 480.814 285.96 478.154 285.96C475.494 285.96 473.534 284.22 473.534 281.74C473.534 279.24 475.494 277.5 478.154 277.5ZM478.154 278.88C476.394 278.88 475.114 280.08 475.114 281.74C475.114 283.4 476.394 284.58 478.154 284.58C479.894 284.58 481.194 283.4 481.194 281.74C481.194 280.08 479.894 278.88 478.154 278.88ZM486.434 276.48H488.094V286.78H486.434V276.48ZM496.753 277.86C499.373 277.86 501.253 280.32 501.253 284.16C501.253 288.02 499.373 290.48 496.753 290.48C494.113 290.48 492.253 288.02 492.253 284.16C492.253 280.32 494.113 277.86 496.753 277.86ZM496.753 279.36C495.013 279.36 493.833 281.24 493.833 284.16C493.833 287.1 495.013 289.02 496.753 289.02C498.493 289.02 499.673 287.1 499.673 284.16C499.673 281.24 498.493 279.36 496.753 279.36ZM505.173 276.46H506.813V294.58H505.173V276.46ZM500.713 283.36H505.893V284.72H500.713V283.36ZM514.631 285.78H516.271V291.2H514.631V285.78ZM521.311 285.78H522.971V291.2H521.311V285.78ZM510.631 290.88H527.011V292.26H510.631V290.88ZM518.791 277.62C522.611 277.62 525.351 279.44 525.351 282.28C525.351 285.1 522.611 286.92 518.791 286.92C514.951 286.92 512.211 285.1 512.211 282.28C512.211 279.44 514.951 277.62 518.791 277.62ZM518.791 278.94C515.891 278.94 513.811 280.26 513.811 282.28C513.811 284.28 515.891 285.6 518.791 285.6C521.691 285.6 523.751 284.28 523.751 282.28C523.751 280.26 521.691 278.94 518.791 278.94ZM529.59 293V290.96H531.63V293H529.59Z" fill="black"/>
<path d="M165.12 331.46H166.78V349.58H165.12V331.46ZM157.24 332.86C159.92 332.86 161.84 335.32 161.84 339.16C161.84 343.02 159.92 345.48 157.24 345.48C154.58 345.48 152.66 343.02 152.66 339.16C152.66 335.32 154.58 332.86 157.24 332.86ZM157.24 334.36C155.48 334.36 154.24 336.24 154.24 339.16C154.24 342.1 155.48 344.02 157.24 344.02C159.02 344.02 160.24 342.1 160.24 339.16C160.24 336.24 159.02 334.36 157.24 334.36ZM184.338 331.48H185.918V345.2H184.338V331.48ZM177.998 336.72H181.418V338.08H177.998V336.72ZM180.898 331.84H182.478V344.68H180.898V331.84ZM171.498 332.92H173.058V335.96H176.918V332.92H178.498V341.78H171.498V332.92ZM173.058 337.28V340.44H176.918V337.28H173.058ZM174.138 347.8H186.478V349.16H174.138V347.8ZM174.138 343.36H175.798V348.54H174.138V343.36ZM191.497 341.22H203.917V342.56H191.497V341.22ZM189.397 345.86H205.777V347.24H189.397V345.86ZM191.497 333.02H203.717V334.38H193.177V341.64H191.497V333.02ZM192.637 337.06H203.337V338.38H192.637V337.06ZM218.41 332.86C221.07 332.86 222.95 335.32 222.95 339.16C222.95 343.02 221.07 345.48 218.41 345.48C215.75 345.48 213.87 343.02 213.87 339.16C213.87 335.32 215.75 332.86 218.41 332.86ZM218.41 334.36C216.65 334.36 215.45 336.24 215.45 339.16C215.45 342.1 216.65 344.02 218.41 344.02C220.15 344.02 221.37 342.1 221.37 339.16C221.37 336.24 220.15 334.36 218.41 334.36ZM225.83 331.48H227.51V349.56H225.83V331.48ZM227.11 338.7H230.47V340.1H227.11V338.7ZM245.449 331.48H247.109V349.56H245.449V331.48ZM233.449 333.24H235.089V344.44H233.449V333.24ZM233.449 343.46H234.929C237.669 343.46 240.529 343.26 243.589 342.62L243.789 344.04C240.649 344.68 237.789 344.9 234.929 344.9H233.449V343.46ZM259.667 334.66H264.727V336.02H259.667V334.66ZM259.667 338.52H264.767V339.9H259.667V338.52ZM251.827 333.04H260.087V341.52H251.827V333.04ZM258.447 334.38H253.447V340.18H258.447V334.38ZM264.207 331.5H265.867V344.7H264.207V331.5ZM254.247 347.8H266.307V349.16H254.247V347.8ZM254.247 343.5H255.907V348.42H254.247V343.5ZM287.44 331.46H289.12V349.58H287.44V331.46ZM288.72 338.6H292.08V340H288.72V338.6ZM275.98 343.68H277.4C280.74 343.68 283.08 343.56 285.78 343.06L285.96 344.46C283.18 344.98 280.8 345.08 277.4 345.08H275.98V343.68ZM275.98 333.22H284.38V334.58H277.62V344.3H275.98V333.22ZM298.679 333.04H300.039V336.28C300.039 340.44 297.799 344.3 294.839 345.8L293.819 344.44C296.499 343.16 298.679 339.7 298.679 336.28V333.04ZM298.959 333.04H300.319V336.28C300.319 339.58 302.479 342.9 305.159 344.14L304.159 345.46C301.219 344.02 298.959 340.3 298.959 336.28V333.04ZM307.039 331.46H308.699V349.58H307.039V331.46ZM324.837 331.46H326.517V349.56H324.837V331.46ZM326.057 338.8H329.397V340.18H326.057V338.8ZM320.217 333.42H321.837C321.837 338.56 319.477 343.2 313.637 346.14L312.717 344.86C317.717 342.32 320.217 338.46 320.217 333.68V333.42ZM313.557 333.42H321.077V334.78H313.557V333.42ZM336.116 333.46H337.496V335.3C337.496 338.62 335.456 341.4 332.416 342.5L331.556 341.18C334.276 340.22 336.116 337.88 336.116 335.3V333.46ZM336.436 333.46H337.816V335.3C337.816 337.74 339.696 339.94 342.376 340.84L341.516 342.14C338.516 341.12 336.436 338.48 336.436 335.3V333.46ZM331.996 332.98H341.896V334.32H331.996V332.98ZM344.456 331.5H346.136V344.72H344.456V331.5ZM334.516 347.8H346.676V349.16H334.516V347.8ZM334.516 343.48H336.156V348.4H334.516V343.48ZM360.509 332.5C363.209 332.5 365.189 334.22 365.189 336.68C365.189 339.14 363.209 340.86 360.509 340.86C357.829 340.86 355.849 339.14 355.849 336.68C355.849 334.22 357.829 332.5 360.509 332.5ZM360.509 333.86C358.789 333.86 357.469 335.04 357.469 336.68C357.469 338.32 358.789 339.5 360.509 339.5C362.269 339.5 363.589 338.32 363.589 336.68C363.589 335.04 362.269 333.86 360.509 333.86ZM367.889 331.48H369.549V340.48H367.889V331.48ZM368.829 335.54H372.229V336.9H368.829V335.54ZM357.409 347.72H358.269C359.349 347.72 361.089 347.62 362.629 347.1L362.909 348.44C361.169 349 359.509 349.08 358.269 349.08H357.409V347.72ZM357.409 342.44H359.029V348.2H357.409V342.44ZM362.249 342.56H371.329V343.8H362.249V342.56ZM366.809 344.44C368.769 344.44 370.149 345.42 370.149 346.98C370.149 348.56 368.769 349.54 366.809 349.54C364.829 349.54 363.449 348.56 363.449 346.98C363.449 345.42 364.829 344.44 366.809 344.44ZM366.809 345.62C365.689 345.62 364.929 346.16 364.929 346.98C364.929 347.82 365.689 348.36 366.809 348.36C367.889 348.36 368.669 347.82 368.669 346.98C368.669 346.16 367.889 345.62 366.809 345.62ZM365.989 340.94H367.609V343.52H365.989V340.94ZM382.387 331.78C386.367 331.78 388.747 332.9 388.747 334.92C388.747 336.94 386.367 338.06 382.387 338.06C378.387 338.06 376.027 336.94 376.027 334.92C376.027 332.9 378.387 331.78 382.387 331.78ZM382.387 333.04C379.427 333.04 377.727 333.72 377.727 334.92C377.727 336.12 379.427 336.8 382.387 336.8C385.327 336.8 387.027 336.12 387.027 334.92C387.027 333.72 385.327 333.04 382.387 333.04ZM374.207 339.26H390.547V340.6H374.207V339.26ZM376.187 342.14H388.467V346.22H377.867V348.42H376.227V345.02H386.827V343.42H376.187V342.14ZM376.227 348.06H389.007V349.36H376.227V348.06ZM398.441 340.2H414.781V341.56H398.441V340.2ZM400.501 337.02H412.941V338.36H400.501V337.02ZM400.501 332.12H412.781V333.48H402.161V337.72H400.501V332.12ZM405.781 342.94H407.201V343.5C407.201 346.74 404.041 348.86 400.341 349.48L399.721 348.16C403.001 347.7 405.781 345.9 405.781 343.5V342.94ZM406.041 342.94H407.461V343.5C407.461 345.9 410.221 347.7 413.541 348.16L412.901 349.48C409.181 348.86 406.041 346.74 406.041 343.5V342.94ZM429.499 331.48H431.159V341.98H429.499V331.48ZM430.439 336.08H433.839V337.48H430.439V336.08ZM419.799 342.78H421.419V344.7H429.519V342.78H431.159V349.32H419.799V342.78ZM421.419 345.98V347.98H429.519V345.98H421.419ZM417.179 333.32H427.859V334.68H417.179V333.32ZM422.519 335.5C425.099 335.5 426.839 336.76 426.839 338.68C426.839 340.6 425.099 341.86 422.519 341.86C419.919 341.86 418.179 340.6 418.179 338.68C418.179 336.76 419.919 335.5 422.519 335.5ZM422.519 336.76C420.859 336.76 419.759 337.52 419.759 338.68C419.759 339.84 420.859 340.6 422.519 340.6C424.139 340.6 425.259 339.84 425.259 338.68C425.259 337.52 424.139 336.76 422.519 336.76ZM421.679 331.3H423.339V334.06H421.679V331.3ZM448.977 331.48H450.637V349.56H448.977V331.48ZM436.977 333.24H438.617V344.44H436.977V333.24ZM436.977 343.46H438.457C441.197 343.46 444.057 343.26 447.117 342.62L447.317 344.04C444.177 344.68 441.317 344.9 438.457 344.9H436.977V343.46ZM466.756 331.46H468.436V349.58H466.756V331.46ZM468.036 338.6H471.396V340H468.036V338.6ZM455.296 343.68H456.716C460.056 343.68 462.396 343.56 465.096 343.06L465.276 344.46C462.496 344.98 460.116 345.08 456.716 345.08H455.296V343.68ZM455.296 333.22H463.696V334.58H456.936V344.3H455.296V333.22ZM473.494 348V345.96H475.534V348H473.494Z" fill="black"/>
<path d="M68.5 168.24H71.18V186.82H68.5V168.24ZM61.2 169.54C64 169.54 66.06 172.1 66.06 176.14C66.06 180.22 64 182.78 61.2 182.78C58.4 182.78 56.34 180.22 56.34 176.14C56.34 172.1 58.4 169.54 61.2 169.54ZM61.2 171.96C59.82 171.96 58.88 173.42 58.88 176.14C58.88 178.9 59.82 180.38 61.2 180.38C62.58 180.38 63.5 178.9 63.5 176.14C63.5 173.42 62.58 171.96 61.2 171.96ZM78.2584 174.46H80.9184V177.86H78.2584V174.46ZM84.7784 174.46H87.4184V177.86H84.7784V174.46ZM74.4984 177.04H91.2384V179.14H74.4984V177.04ZM82.8384 180.08C86.8384 180.08 89.2584 181.28 89.2584 183.42C89.2584 185.58 86.8384 186.78 82.8384 186.78C78.8184 186.78 76.3984 185.58 76.3984 183.42C76.3984 181.28 78.8184 180.08 82.8384 180.08ZM82.8384 182.08C80.3584 182.08 79.0984 182.5 79.0984 183.42C79.0984 184.36 80.3584 184.78 82.8384 184.78C85.3184 184.78 86.5784 184.36 86.5784 183.42C86.5784 182.5 85.3184 182.08 82.8384 182.08ZM82.8784 168.52C86.9584 168.52 89.5784 169.88 89.5784 172.1C89.5784 174.3 86.9584 175.62 82.8784 175.62C78.7784 175.62 76.1784 174.3 76.1784 172.1C76.1784 169.88 78.7784 168.52 82.8784 168.52ZM82.8784 170.56C80.3384 170.56 78.9184 171.06 78.9184 172.1C78.9184 173.12 80.3384 173.62 82.8784 173.62C85.4184 173.62 86.8384 173.12 86.8384 172.1C86.8384 171.06 85.4184 170.56 82.8784 170.56ZM97.4569 179.06H100.057V183.42H97.4569V179.06ZM103.317 179.04H105.917V183.42H103.317V179.04ZM93.2169 182.58H109.977V184.74H93.2169V182.58ZM95.0969 169.46H108.097V175.6H97.7769V178.74H95.1369V173.52H105.457V171.56H95.0969V169.46ZM95.1369 177.62H108.517V179.76H95.1369V177.62Z" fill="black"/>
<path d="M68.56 221.26H71.24V239.78H68.56V221.26ZM63.1 223.18H65.74C65.74 228.84 63.82 233.48 57.24 236.66L55.86 234.54C61.18 231.98 63.1 228.62 63.1 223.66V223.18ZM56.84 223.18H64.36V225.28H56.84V223.18ZM76.4184 222.34H88.0384V224.44H76.4184V222.34ZM74.5184 230.22H91.2584V232.36H74.5184V230.22ZM81.4584 231.72H84.1384V239.8H81.4584V231.72ZM86.6784 222.34H89.2984V223.98C89.2984 225.98 89.2984 228.22 88.5784 231.5L85.9584 231.2C86.6784 228.1 86.6784 225.9 86.6784 223.98V222.34ZM100.217 227.9H102.857V231.22H100.217V227.9ZM93.1969 230.12H109.937V232.22H93.1969V230.12ZM101.537 233.24C105.557 233.24 107.957 234.42 107.957 236.52C107.957 238.62 105.557 239.78 101.537 239.78C97.5169 239.78 95.0969 238.62 95.0969 236.52C95.0969 234.42 97.5169 233.24 101.537 233.24ZM101.537 235.24C99.0369 235.24 97.7969 235.64 97.7969 236.52C97.7969 237.42 99.0369 237.8 101.537 237.8C104.037 237.8 105.277 237.42 105.277 236.52C105.277 235.64 104.037 235.24 101.537 235.24ZM99.7369 223H102.097V223.46C102.097 226.24 99.5969 228.5 94.8169 228.96L93.8969 226.86C97.9569 226.52 99.7369 224.9 99.7369 223.46V223ZM101.037 223H103.397V223.46C103.397 224.9 105.157 226.52 109.237 226.86L108.317 228.96C103.557 228.5 101.037 226.26 101.037 223.46V223ZM94.7169 222.02H108.437V224.12H94.7169V222.02ZM111.895 232.12H128.675V234.22H111.895V232.12ZM115.755 233.22H118.435V239.78H115.755V233.22ZM122.155 233.22H124.835V239.78H122.155V233.22ZM113.815 221.82H126.735V227.24H116.555V230.12H113.855V225.28H124.035V223.94H113.815V221.82ZM113.855 228.7H127.195V230.8H113.855V228.7ZM148.066 221.24H150.746V239.82H148.066V221.24ZM150.146 228.1H153.426V230.28H150.146V228.1ZM136.946 233.16H138.506C141.626 233.16 144.086 233.06 146.806 232.58L147.066 234.78C144.266 235.28 141.726 235.36 138.506 235.36H136.946V233.16ZM136.946 222.96H145.586V225.1H139.586V234.22H136.946V222.96ZM168.684 223.54H171.884V225.7H168.684V223.54ZM168.684 227.56H171.884V229.72H168.684V227.56ZM160.084 222.26C162.944 222.26 165.124 224.14 165.124 226.76C165.124 229.36 162.944 231.24 160.084 231.24C157.224 231.24 155.044 229.36 155.044 226.76C155.044 224.14 157.224 222.26 160.084 222.26ZM160.084 224.48C158.684 224.48 157.644 225.34 157.644 226.76C157.644 228.2 158.684 229.02 160.084 229.02C161.484 229.02 162.524 228.2 162.524 226.76C162.524 225.34 161.484 224.48 160.084 224.48ZM166.844 221.26H169.504V232.06H166.844V221.26ZM163.464 232.46C167.284 232.46 169.724 233.84 169.724 236.12C169.724 238.42 167.284 239.78 163.464 239.78C159.624 239.78 157.184 238.42 157.184 236.12C157.184 233.84 159.624 232.46 163.464 232.46ZM163.464 234.56C161.104 234.56 159.824 235.06 159.824 236.12C159.824 237.2 161.104 237.7 163.464 237.7C165.824 237.7 167.084 237.2 167.084 236.12C167.084 235.06 165.824 234.56 163.464 234.56ZM177.923 222.22H180.143V223.88C180.143 227.6 178.483 230.86 174.843 232.08L173.463 229.94C176.623 228.92 177.923 226.42 177.923 223.88V222.22ZM178.483 222.22H180.623V223.76C180.623 226.22 181.823 228.5 184.763 229.44L183.383 231.52C179.963 230.34 178.483 227.36 178.483 223.76V222.22ZM186.463 221.26H189.123V232.1H186.463V221.26ZM182.843 232.58C186.763 232.58 189.183 233.92 189.183 236.18C189.183 238.46 186.763 239.78 182.843 239.78C178.923 239.78 176.503 238.46 176.503 236.18C176.503 233.92 178.923 232.58 182.843 232.58ZM182.843 234.64C180.443 234.64 179.163 235.14 179.163 236.18C179.163 237.22 180.443 237.74 182.843 237.74C185.263 237.74 186.543 237.22 186.543 236.18C186.543 235.14 185.263 234.64 182.843 234.64ZM183.083 224.62H186.843V226.78H183.083V224.62Z" fill="black"/>
<path d="M63.16 282.48H66.1V284.62H63.16V282.48ZM69.06 278.26H71.58V292.12H69.06V278.26ZM65.36 278.56H67.86V291.56H65.36V278.56ZM59.12 294.34H72.06V296.46H59.12V294.34ZM59.12 290.5H61.78V295.68H59.12V290.5ZM59.06 279.5H61.14V281.88C61.14 285.14 59.94 288.36 57 289.74L55.56 287.72C58.08 286.48 59.06 284.08 59.06 281.88V279.5ZM59.6 279.5H61.64V281.88C61.64 284.02 62.52 286.14 64.84 287.26L63.38 289.28C60.64 288 59.6 285.04 59.6 281.88V279.5ZM87.3984 278.24H90.0384V296.82H87.3984V278.24ZM84.2184 284.76H87.6984V286.92H84.2184V284.76ZM75.3384 290.48H76.8184C79.8784 290.48 82.1584 290.44 84.7784 290.02L85.0184 292.14C82.3384 292.56 79.9384 292.64 76.8184 292.64H75.3384V290.48ZM75.3384 279.8H83.9184V281.96H77.9784V291.16H75.3384V279.8ZM77.3784 284.96H83.2784V287.04H77.3784V284.96ZM105.237 278.26H107.897V292.74H105.237V278.26ZM106.957 284.32H110.217V286.48H106.957V284.32ZM95.5369 294.34H108.517V296.46H95.5369V294.34ZM95.5369 291.8H98.2169V294.96H95.5369V291.8ZM97.3969 287.16H100.057V289.86H97.3969V287.16ZM93.2769 290.94L92.9769 288.9C96.1969 288.9 100.657 288.84 104.417 288.28L104.617 290.1C100.777 290.82 96.4369 290.9 93.2769 290.94ZM93.4569 279.74H103.957V281.66H93.4569V279.74ZM98.7169 282.14C101.437 282.14 103.217 283.22 103.217 285.02C103.217 286.78 101.437 287.88 98.7169 287.88C95.9969 287.88 94.1969 286.78 94.1969 285.02C94.1969 283.22 95.9969 282.14 98.7169 282.14ZM98.7169 283.92C97.4569 283.92 96.7169 284.28 96.7169 285.02C96.7169 285.72 97.4569 286.08 98.7169 286.08C99.9569 286.08 100.697 285.72 100.697 285.02C100.697 284.28 99.9569 283.92 98.7169 283.92ZM97.3969 278.18H100.057V280.56H97.3969V278.18ZM120.815 281.18H125.155V283.3H120.815V281.18ZM120.675 285.02H125.015V287.14H120.675V285.02ZM124.735 278.26H127.395V288.92H124.735V278.26ZM118.695 279.52H121.535C121.535 284.56 118.695 287.8 113.075 289.34L112.035 287.24C116.735 286.02 118.695 283.7 118.695 280.8V279.52ZM113.055 279.52H120.555V281.64H113.055V279.52ZM121.255 289.16C125.015 289.16 127.515 290.6 127.515 292.92C127.515 295.24 125.015 296.7 121.255 296.7C117.495 296.7 114.995 295.24 114.995 292.92C114.995 290.6 117.495 289.16 121.255 289.16ZM121.255 291.2C118.995 291.2 117.635 291.78 117.635 292.92C117.635 294.06 118.995 294.62 121.255 294.62C123.535 294.62 124.895 294.06 124.895 292.92C124.895 291.78 123.535 291.2 121.255 291.2Z" fill="black"/>
<path d="M68.56 331.26H71.24V349.78H68.56V331.26ZM63.1 333.18H65.74C65.74 338.84 63.82 343.48 57.24 346.66L55.86 344.54C61.18 341.98 63.1 338.62 63.1 333.66V333.18ZM56.84 333.18H64.36V335.28H56.84V333.18ZM75.2184 343.44H76.7784C79.8984 343.44 82.2784 343.4 85.0384 342.96L85.2784 345.08C82.4784 345.52 79.9584 345.6 76.7784 345.6H75.2184V343.44ZM75.2184 332.8H83.9184V334.96H77.8984V344.14H75.2184V332.8ZM77.2584 337.94H83.6584V340.02H77.2584V337.94ZM86.3384 331.26H89.0184V349.78H86.3384V331.26ZM88.4184 338.28H91.6984V340.48H88.4184V338.28Z" fill="black"/>
<path d="M90 76H562V139H90V76Z" fill="#F4F4F4"/>
<path d="M149.26 107.1V105.68C149.26 105.133 149.347 104.627 149.52 104.16C149.707 103.693 150.02 103.233 150.46 102.78L151.24 103.36C150.893 103.747 150.653 104.1 150.52 104.42C150.4 104.727 150.34 105.053 150.34 105.4L149.86 105.06H151.3V107.1H149.26ZM152.62 107.1V105.68C152.62 105.133 152.707 104.627 152.88 104.16C153.067 103.693 153.38 103.233 153.82 102.78L154.6 103.36C154.253 103.747 154.013 104.1 153.88 104.42C153.76 104.727 153.7 105.053 153.7 105.4L153.22 105.06H154.66V107.1H152.62ZM164.505 102.4H176.145V103.74H164.505V102.4ZM162.745 114.54H179.085V115.92H162.745V114.54ZM175.265 102.4H176.885V104.2C176.885 106.52 176.885 109.1 176.205 113L174.545 112.84C175.265 109.14 175.265 106.44 175.265 104.2V102.4ZM195.003 103.18H198.123V104.58H195.003V103.18ZM195.003 107.04H198.123V108.42H195.003V107.04ZM193.823 100.48H195.463V111.24H193.823V100.48ZM189.683 111.48C193.303 111.48 195.643 112.84 195.643 115.02C195.643 117.2 193.303 118.54 189.683 118.54C186.063 118.54 183.723 117.2 183.723 115.02C183.723 112.84 186.063 111.48 189.683 111.48ZM189.683 112.82C187.063 112.82 185.363 113.66 185.363 115.02C185.363 116.38 187.063 117.22 189.683 117.22C192.323 117.22 194.023 116.38 194.023 115.02C194.023 113.66 192.323 112.82 189.683 112.82ZM182.303 101.58H183.963V108.84H182.303V101.58ZM182.303 108.22H183.723C186.323 108.22 189.023 108.04 191.983 107.46L192.183 108.8C189.123 109.44 186.423 109.62 183.723 109.62H182.303V108.22ZM218.876 100.46H220.516V118.58H218.876V100.46ZM214.976 107.06H219.356V108.42H214.976V107.06ZM210.236 103.06H211.576V105.76C211.576 109.66 209.336 113.52 206.476 115L205.496 113.68C208.096 112.4 210.236 108.98 210.236 105.76V103.06ZM210.576 103.06H211.896V105.76C211.896 108.78 213.996 112.08 216.616 113.32L215.636 114.62C212.776 113.2 210.576 109.48 210.576 105.76V103.06ZM206.156 102.32H215.996V103.7H206.156V102.32ZM237.915 103.18H241.035V104.58H237.915V103.18ZM237.915 107.04H241.035V108.42H237.915V107.04ZM236.735 100.48H238.375V111.24H236.735V100.48ZM232.595 111.48C236.215 111.48 238.555 112.84 238.555 115.02C238.555 117.2 236.215 118.54 232.595 118.54C228.975 118.54 226.635 117.2 226.635 115.02C226.635 112.84 228.975 111.48 232.595 111.48ZM232.595 112.82C229.975 112.82 228.275 113.66 228.275 115.02C228.275 116.38 229.975 117.22 232.595 117.22C235.235 117.22 236.935 116.38 236.935 115.02C236.935 113.66 235.235 112.82 232.595 112.82ZM225.215 101.58H226.875V108.84H225.215V101.58ZM225.215 108.22H226.635C229.235 108.22 231.935 108.04 234.895 107.46L235.095 108.8C232.035 109.44 229.335 109.62 226.635 109.62H225.215V108.22ZM260.788 100.46H262.468V118.56H260.788V100.46ZM262.008 107.8H265.348V109.18H262.008V107.8ZM256.168 102.42H257.788C257.788 107.56 255.428 112.2 249.588 115.14L248.668 113.86C253.668 111.32 256.168 107.46 256.168 102.68V102.42ZM249.508 102.42H257.028V103.78H249.508V102.42ZM279.806 100.48H281.446V118.56H279.806V100.48ZM280.926 107.92H284.146V109.32H280.926V107.92ZM271.146 102.42H272.666C272.666 106.78 271.746 111 268.506 114.5L267.166 113.56C270.146 110.46 271.146 106.7 271.146 102.6V102.42ZM267.746 102.42H271.766V103.8H267.746V102.42ZM276.066 102.42H277.606C277.606 106.8 276.986 111.76 273.666 115.7L272.326 114.78C275.386 111.24 276.066 106.76 276.066 102.58V102.42ZM273.246 102.42H276.746V103.8H273.246V102.42ZM290.865 110.58H292.505V118H290.865V110.58ZM299.145 100.48H300.805V118.58H299.145V100.48ZM286.105 111.4L285.885 110C289.305 110 293.845 109.98 297.765 109.42L297.865 110.66C293.825 111.34 289.465 111.4 286.105 111.4ZM295.045 112.82H299.565V114.12H295.045V112.82ZM291.785 101.38C294.445 101.38 296.305 102.8 296.305 104.94C296.305 107.08 294.445 108.5 291.785 108.5C289.085 108.5 287.245 107.08 287.245 104.94C287.245 102.8 289.085 101.38 291.785 101.38ZM291.785 102.66C290.025 102.66 288.785 103.6 288.785 104.94C288.785 106.3 290.025 107.22 291.785 107.22C293.505 107.22 294.745 106.3 294.745 104.94C294.745 103.6 293.505 102.66 291.785 102.66ZM313.683 106.6H318.723V107.96H313.683V106.6ZM309.323 102.04H310.683V105.26C310.683 109.32 308.543 113.2 305.683 114.74L304.623 113.42C307.283 112.1 309.323 108.62 309.323 105.26V102.04ZM309.643 102.04H310.983V105.26C310.983 108.56 313.023 111.84 315.643 113.08L314.663 114.42C311.743 112.94 309.643 109.22 309.643 105.26V102.04ZM317.903 100.46H319.543V118.58H317.903V100.46ZM336.197 105.84H337.837V108.6H336.197V105.84ZM335.957 101.58H337.417V102.14C337.417 104.86 334.057 106.6 330.257 106.96L329.717 105.7C332.977 105.44 335.957 104.04 335.957 102.14V101.58ZM336.677 101.58H338.117V102.14C338.117 104.02 341.097 105.44 344.357 105.7L343.817 106.96C340.037 106.6 336.677 104.86 336.677 102.14V101.58ZM330.357 101.04H343.737V102.34H330.357V101.04ZM330.377 111.7H343.697V113.02H330.377V111.7ZM328.857 107.98H345.257V109.32H328.857V107.98ZM337.037 113.9C340.517 113.9 342.457 114.72 342.457 116.28C342.457 117.86 340.517 118.66 337.037 118.66C333.557 118.66 331.597 117.86 331.597 116.28C331.597 114.72 333.557 113.9 337.037 113.9ZM337.037 115.04C334.637 115.04 333.297 115.46 333.297 116.28C333.297 117.1 334.637 117.52 337.037 117.52C339.417 117.52 340.777 117.1 340.777 116.28C340.777 115.46 339.417 115.04 337.037 115.04ZM336.217 110.04H337.857V112.54H336.217V110.04ZM347.555 109.98H363.895V111.34H347.555V109.98ZM349.675 116.8H362.095V118.16H349.675V116.8ZM349.675 112.92H351.335V117.22H349.675V112.92ZM355.735 101.08C359.595 101.08 362.095 102.44 362.095 104.7C362.095 106.94 359.595 108.3 355.735 108.3C351.855 108.3 349.375 106.94 349.375 104.7C349.375 102.44 351.855 101.08 355.735 101.08ZM355.735 102.44C352.895 102.44 351.075 103.28 351.075 104.7C351.075 106.12 352.895 106.96 355.735 106.96C358.575 106.96 360.395 106.12 360.395 104.7C360.395 103.28 358.575 102.44 355.735 102.44ZM385.428 100.5H387.008V110.6H385.428V100.5ZM380.188 105.22H383.048V106.58H380.188V105.22ZM382.188 100.78H383.748V110.46H382.188V100.78ZM375.088 111.4H387.008V115.42H376.768V117.46H375.128V114.22H385.408V112.64H375.088V111.4ZM375.128 117.1H387.668V118.36H375.128V117.1ZM371.688 102.24H380.648V103.54H371.688V102.24ZM376.148 104.26C378.368 104.26 379.908 105.42 379.908 107.24C379.908 109.06 378.368 110.24 376.148 110.24C373.968 110.24 372.408 109.06 372.408 107.24C372.408 105.42 373.968 104.26 376.148 104.26ZM376.148 105.46C374.808 105.46 373.888 106.16 373.888 107.24C373.888 108.32 374.808 109.04 376.148 109.04C377.528 109.04 378.428 108.32 378.428 107.24C378.428 106.16 377.528 105.46 376.148 105.46ZM375.328 100.44H376.988V103.2H375.328V100.44ZM397.727 101.72H399.167V103.1C399.167 107.04 395.507 110.1 391.887 110.92L391.147 109.54C394.327 108.94 397.727 106.18 397.727 103.1V101.72ZM398.027 101.72H399.467V103.1C399.467 106.2 402.887 108.94 406.047 109.54L405.307 110.92C401.707 110.1 398.027 107.06 398.027 103.1V101.72ZM390.487 114.76H406.867V116.12H390.487V114.76ZM413.625 102.42H414.985V103.88C414.985 107.2 412.985 109.98 409.945 111.08L409.105 109.76C411.825 108.8 413.625 106.46 413.625 103.88V102.42ZM413.925 102.42H415.285V103.86C415.285 106.22 417.005 108.34 419.665 109.22L418.865 110.52C415.845 109.52 413.925 106.94 413.925 103.86V102.42ZM409.605 101.82H419.265V103.18H409.605V101.82ZM421.545 100.48H423.205V111.38H421.545V100.48ZM422.745 105.06H425.885V106.46H422.745V105.06ZM417.445 111.86C421.125 111.86 423.385 113.08 423.385 115.18C423.385 117.3 421.125 118.52 417.445 118.52C413.765 118.52 411.505 117.3 411.505 115.18C411.505 113.08 413.765 111.86 417.445 111.86ZM417.445 113.2C414.765 113.2 413.125 113.92 413.125 115.18C413.125 116.46 414.765 117.22 417.445 117.22C420.125 117.22 421.765 116.46 421.765 115.18C421.765 113.92 420.125 113.2 417.445 113.2ZM441.004 100.46H442.664V118.58H441.004V100.46ZM433.124 101.86C435.804 101.86 437.724 104.32 437.724 108.16C437.724 112.02 435.804 114.48 433.124 114.48C430.464 114.48 428.544 112.02 428.544 108.16C428.544 104.32 430.464 101.86 433.124 101.86ZM433.124 103.36C431.364 103.36 430.124 105.24 430.124 108.16C430.124 111.1 431.364 113.02 433.124 113.02C434.904 113.02 436.124 111.1 436.124 108.16C436.124 105.24 434.904 103.36 433.124 103.36ZM453.902 107.5H457.322V108.88H453.902V107.5ZM460.342 100.48H461.942V118.56H460.342V100.48ZM456.762 100.86H458.342V117.66H456.762V100.86ZM450.642 101.98C452.982 101.98 454.502 104.4 454.502 108.28C454.502 112.16 452.982 114.58 450.642 114.58C448.302 114.58 446.802 112.16 446.802 108.28C446.802 104.4 448.302 101.98 450.642 101.98ZM450.642 103.52C449.222 103.52 448.322 105.36 448.322 108.28C448.322 111.2 449.222 113.04 450.642 113.04C452.082 113.04 452.982 111.2 452.982 108.28C452.982 105.36 452.082 103.52 450.642 103.52ZM469.28 109.78H470.92V115.2H469.28V109.78ZM475.96 109.78H477.62V115.2H475.96V109.78ZM465.28 114.88H481.66V116.26H465.28V114.88ZM473.44 101.62C477.26 101.62 480 103.44 480 106.28C480 109.1 477.26 110.92 473.44 110.92C469.6 110.92 466.86 109.1 466.86 106.28C466.86 103.44 469.6 101.62 473.44 101.62ZM473.44 102.94C470.54 102.94 468.46 104.26 468.46 106.28C468.46 108.28 470.54 109.6 473.44 109.6C476.34 109.6 478.4 108.28 478.4 106.28C478.4 104.26 476.34 102.94 473.44 102.94ZM484.239 117V114.96H486.279V117H484.239ZM495.465 107.22L494.705 106.64C495.065 106.267 495.298 105.92 495.405 105.6C495.525 105.267 495.585 104.94 495.585 104.62L496.085 104.94H494.625V102.9H496.665V104.34C496.665 104.873 496.578 105.373 496.405 105.84C496.231 106.307 495.918 106.767 495.465 107.22ZM498.825 107.22L498.065 106.64C498.425 106.267 498.658 105.92 498.765 105.6C498.885 105.267 498.945 104.94 498.945 104.62L499.445 104.94H497.985V102.9H500.025V104.34C500.025 104.873 499.938 105.373 499.765 105.84C499.591 106.307 499.278 106.767 498.825 107.22Z" fill="black"/>
<circle cx="547" cy="37" r="15" fill="#F4F4F4"/>
<path d="M546.083 39.7499H547.917V41.5833H546.083V39.7499ZM546.083 32.4166H547.917V37.9166H546.083V32.4166ZM546.991 27.8333C541.931 27.8333 537.833 31.9399 537.833 36.9999C537.833 42.0599 541.931 46.1666 546.991 46.1666C552.06 46.1666 556.167 42.0599 556.167 36.9999C556.167 31.9399 552.06 27.8333 546.991 27.8333ZM547 44.3333C542.948 44.3333 539.667 41.0516 539.667 36.9999C539.667 32.9483 542.948 29.6666 547 29.6666C551.052 29.6666 554.333 32.9483 554.333 36.9999C554.333 41.0516 551.052 44.3333 547 44.3333Z" fill="black" fill-opacity="0.87"/>
</svg>
