<svg width="244" height="38" viewBox="0 0 244 38" fill="none" xmlns="http://www.w3.org/2000/svg">
<rect width="244" height="38" rx="19" fill="#F4F1F1"/>
<path d="M156.41 13.7466L162.32 18.9999L156.41 24.2533L158 25.6666L165.5 18.9999L158 12.3333L156.41 13.7466Z" fill="black" fill-opacity="0.87"/>
<path d="M96.7659 21.144H97.9659C100.59 21.144 102.302 21.08 104.222 20.728L104.43 22.44C102.446 22.808 100.67 22.888 97.9659 22.888H96.7659V21.144ZM96.7659 12.92H103.47V14.616H98.8939V21.8H96.7659V12.92ZM106.382 11.608H108.51V26.472H106.382V11.608ZM102.75 16.712H107.278V18.44H102.75V16.712ZM115.797 22.984H129.205V24.712H115.797V22.984ZM121.413 19.816H123.541V23.4H121.413V19.816ZM117.205 12.552H119.317V14.824H125.637V12.552H127.749V20.264H117.205V12.552ZM119.317 16.488V18.568H125.637V16.488H119.317ZM145.707 11.608H147.851V26.424H145.707V11.608ZM141.339 13.144H143.451C143.451 17.672 141.915 21.384 136.651 23.928L135.547 22.232C139.803 20.184 141.339 17.496 141.339 13.528V13.144ZM136.331 13.144H142.347V14.824H136.331V13.144Z" fill="black"/>
</svg>
