<svg width="75" height="32" viewBox="0 0 75 32" fill="none" xmlns="http://www.w3.org/2000/svg">
<rect width="75" height="32" rx="16" fill="#F4F4F4"/>
<path d="M38.8166 17.584H40.6646V22.26H38.8166V17.584ZM33.9026 17.038H45.6206V18.55H33.9026V17.038ZM38.8026 11.606H40.4406V11.914C40.4406 14.084 38.5646 15.974 35.1346 16.38L34.4906 14.924C37.4166 14.588 38.8026 13.118 38.8026 11.914V11.606ZM39.0406 11.606H40.6786V11.914C40.6786 13.09 42.0786 14.588 44.9906 14.924L44.3326 16.38C40.9166 15.988 39.0406 14.028 39.0406 11.914V11.606ZM34.9526 10.766H44.5566V12.236H34.9526V10.766ZM38.8166 9.31H40.6646V11.27H38.8166V9.31ZM49.8795 11.816H51.3915V12.32C51.3915 14.686 50.2435 16.8 47.7795 17.57L46.8835 16.114C48.9835 15.456 49.8795 13.888 49.8795 12.32V11.816ZM50.2155 11.816H51.7415V12.32C51.7415 13.776 52.6515 15.274 54.7515 15.904L53.8555 17.36C51.4055 16.632 50.2155 14.588 50.2155 12.32V11.816ZM47.3315 10.808H54.2895V12.264H47.3315V10.808ZM49.8795 9.38H51.7415V11.354H49.8795V9.38ZM53.8835 13.048H56.8935V14.574H53.8835V13.048ZM55.9555 9.296H57.8175V18.886H55.9555V9.296ZM49.2635 20.538H58.1115V22.022H49.2635V20.538ZM49.2635 18.088H51.1255V21.518H49.2635V18.088Z" fill="black"/>
<path d="M12.7083 21.8749H15.5416V13.3749H12.7083V21.8749ZM28.2916 14.0833C28.2916 13.3041 27.6541 12.6666 26.8749 12.6666H22.4053L23.0783 9.4295L23.0995 9.20284C23.0995 8.91242 22.9791 8.64325 22.7878 8.452L22.037 7.70825L17.3762 12.3762C17.1141 12.6312 16.9583 12.9853 16.9583 13.3749V20.4583C16.9583 21.2374 17.5958 21.8749 18.3749 21.8749H24.7499C25.3378 21.8749 25.8408 21.5208 26.0533 21.0108L28.1924 16.017C28.2562 15.8541 28.2916 15.6841 28.2916 15.4999V14.147L28.2845 14.1399L28.2916 14.0833Z" fill="black" fill-opacity="0.87"/>
</svg>
