<svg width="110" height="34" viewBox="0 0 110 34" fill="none" xmlns="http://www.w3.org/2000/svg">
<rect width="110" height="34" rx="17" fill="#F4F4F4"/>
<path d="M32.3663 19.215H34.3463V24.225H32.3663V19.215ZM27.1013 18.63H39.6563V20.25H27.1013V18.63ZM32.3513 12.81H34.1063V13.14C34.1063 15.465 32.0963 17.49 28.4213 17.925L27.7313 16.365C30.8663 16.005 32.3513 14.43 32.3513 13.14V12.81ZM32.6063 12.81H34.3613V13.14C34.3613 14.4 35.8613 16.005 38.9813 16.365L38.2763 17.925C34.6163 17.505 32.6063 15.405 32.6063 13.14V12.81ZM28.2263 11.91H38.5163V13.485H28.2263V11.91ZM32.3663 10.35H34.3463V12.45H32.3663V10.35ZM44.2051 13.035H45.8251V13.575C45.8251 16.11 44.5951 18.375 41.9551 19.2L40.9951 17.64C43.2451 16.935 44.2051 15.255 44.2051 13.575V13.035ZM44.5651 13.035H46.2001V13.575C46.2001 15.135 47.1751 16.74 49.4251 17.415L48.4651 18.975C45.8401 18.195 44.5651 16.005 44.5651 13.575V13.035ZM41.4751 11.955H48.9301V13.515H41.4751V11.955ZM44.2051 10.425H46.2001V12.54H44.2051V10.425ZM48.4951 14.355H51.7201V15.99H48.4951V14.355ZM50.7151 10.335H52.7101V20.61H50.7151V10.335ZM43.5451 22.38H53.0251V23.97H43.5451V22.38ZM43.5451 19.755H45.5401V23.43H43.5451V19.755ZM60.3489 10.68H62.0589V11.115C62.0589 13.68 60.0039 15.855 56.4639 16.395L55.7139 14.835C58.7889 14.4 60.3489 12.69 60.3489 11.115V10.68ZM60.6789 10.68H62.3889V11.115C62.3889 12.645 63.9489 14.37 67.0089 14.79L66.2739 16.35C62.7339 15.825 60.6789 13.65 60.6789 11.115V10.68ZM55.0839 17.145H67.6539V18.735H55.0839V17.145ZM60.5289 18.15H62.5389V21.075H60.5289V18.15ZM56.5389 22.38H66.2739V23.97H56.5389V22.38ZM56.5389 19.905H58.5189V22.875H56.5389V19.905Z" fill="black"/>
<path d="M83.3461 21.9583L90.3076 11.8645H76.3846L83.3461 21.9583Z" fill="black"/>
</svg>
