<svg width="83" height="30" viewBox="0 0 83 30" fill="none" xmlns="http://www.w3.org/2000/svg">
<rect width="83" height="30" rx="15" fill="#D9D9D9"/>
<path d="M28.4941 14.54H30.3561V16.346H28.4941V14.54ZM25.0781 8.478H26.9121V9.332H31.9661V8.478H33.8141V12.818H25.0781V8.478ZM26.9121 10.69V11.446H31.9661V10.69H26.9121ZM23.5801 13.49H35.2981V14.96H23.5801V13.49ZM24.9241 15.772H33.8841V19.062H26.7721V20.238H24.9381V17.788H32.0501V17.13H24.9241V15.772ZM24.9381 19.776H34.2201V21.162H24.9381V19.776ZM37.037 9.346H43.211V15.604H37.037V9.346ZM41.377 10.816H38.871V14.134H41.377V10.816ZM45.003 8.282H46.865V17.732H45.003V8.282ZM46.333 12.02H48.587V13.546H46.333V12.02ZM38.507 19.538H47.327V21.022H38.507V19.538ZM38.507 16.808H40.369V20.28H38.507V16.808ZM54.3159 9.472H55.9679V9.794C55.9679 11.768 54.2179 13.392 50.8859 13.714L50.2279 12.272C53.0699 11.992 54.3159 10.83 54.3159 9.794V9.472ZM55.2259 9.472H56.8779V9.794C56.8779 10.844 58.1239 12.006 60.9659 12.272L60.3079 13.714C56.9899 13.392 55.2259 11.782 55.2259 9.794V9.472ZM50.8019 8.758H60.4059V10.228H50.8019V8.758ZM49.7379 14.582H61.4699V16.066H49.7379V14.582ZM54.6519 12.916H56.4999V15.24H54.6519V12.916ZM51.0399 17.004H60.0419V21.246H58.1799V18.474H51.0399V17.004Z" fill="#616161"/>
</svg>
