<svg width="44" height="44" viewBox="0 0 44 44" fill="none" xmlns="http://www.w3.org/2000/svg">
<path d="M16.5001 21.5417C15.2351 21.5417 14.2084 22.5684 14.2084 23.8334C14.2084 25.0984 15.2351 26.1251 16.5001 26.1251C17.7651 26.1251 18.7917 25.0984 18.7917 23.8334C18.7917 22.5684 17.7651 21.5417 16.5001 21.5417ZM27.5001 21.5417C26.2351 21.5417 25.2084 22.5684 25.2084 23.8334C25.2084 25.0984 26.2351 26.1251 27.5001 26.1251C28.7651 26.1251 29.7917 25.0984 29.7917 23.8334C29.7917 22.5684 28.7651 21.5417 27.5001 21.5417ZM22.0001 3.66675C11.8801 3.66675 3.66675 11.8801 3.66675 22.0001C3.66675 32.1201 11.8801 40.3334 22.0001 40.3334C32.1201 40.3334 40.3334 32.1201 40.3334 22.0001C40.3334 11.8801 32.1201 3.66675 22.0001 3.66675ZM22.0001 36.6667C13.9151 36.6667 7.33341 30.0851 7.33341 22.0001C7.33341 21.4684 7.37008 20.9367 7.42508 20.4234C11.7517 18.4984 15.1801 14.9601 16.9767 10.5784C20.2951 15.2717 25.7584 18.3334 31.9367 18.3334C33.3667 18.3334 34.7417 18.1684 36.0617 17.8567C36.4468 19.1584 36.6667 20.5517 36.6667 22.0001C36.6667 30.0851 30.0851 36.6667 22.0001 36.6667Z" fill="black" fill-opacity="0.87"/>
</svg>
