<svg width="362" height="71" viewBox="0 0 362 71" fill="none" xmlns="http://www.w3.org/2000/svg">
<path d="M35.5 51.3708L53.7825 62.2499L48.9308 41.7458L65.0833 27.9499L43.8129 26.1708L35.5 6.83325L27.187 26.1708L5.91663 27.9499L22.0691 41.7458L17.2175 62.2499L35.5 51.3708Z" fill="#ECECEC"/>
<path d="M109 51.3708L127.025 62.2499L122.242 41.7458L138.167 27.9499L117.196 26.1708L109 6.83325L100.804 26.1708L79.8334 27.9499L95.7584 41.7458L90.975 62.2499L109 51.3708Z" fill="#ECECEC"/>
<path d="M182 51.3708L200.54 62.2499L195.62 41.7458L212 27.9499L190.43 26.1708L182 6.83325L173.57 26.1708L152 27.9499L168.38 41.7458L163.46 62.2499L182 51.3708Z" fill="#ECECEC"/>
<path d="M255 51.3708L273.025 62.2499L268.242 41.7458L284.167 27.9499L263.196 26.1708L255 6.83325L246.804 26.1708L225.833 27.9499L241.758 41.7458L236.975 62.2499L255 51.3708Z" fill="#ECECEC"/>
<path d="M327 50.3708L345.025 61.2499L340.242 40.7458L356.167 26.9499L335.196 25.1708L327 5.83325L318.804 25.1708L297.833 26.9499L313.758 40.7458L308.975 61.2499L327 50.3708Z" fill="#ECECEC"/>
</svg>
