<svg width="83" height="30" viewBox="0 0 83 30" fill="none" xmlns="http://www.w3.org/2000/svg">
<rect width="83" height="30" rx="15" fill="#D9D9D9"/>
<path d="M27.4976 9.346H33.6716V15.604H27.4976V9.346ZM31.8376 10.816H29.3316V14.134H31.8376V10.816ZM35.4636 8.282H37.3256V17.732H35.4636V8.282ZM36.7936 12.02H39.0476V13.546H36.7936V12.02ZM28.9676 19.538H37.7876V21.022H28.9676V19.538ZM28.9676 16.808H30.8296V20.28H28.9676V16.808ZM44.7765 9.472H46.4285V9.794C46.4285 11.768 44.6785 13.392 41.3465 13.714L40.6885 12.272C43.5305 11.992 44.7765 10.83 44.7765 9.794V9.472ZM45.6865 9.472H47.3385V9.794C47.3385 10.844 48.5845 12.006 51.4265 12.272L50.7685 13.714C47.4505 13.392 45.6865 11.782 45.6865 9.794V9.472ZM41.2625 8.758H50.8665V10.228H41.2625V8.758ZM40.1985 14.582H51.9305V16.066H40.1985V14.582ZM45.1125 12.916H46.9605V15.24H45.1125V12.916ZM41.5005 17.004H50.5025V21.246H48.6405V18.474H41.5005V17.004Z" fill="#616161"/>
</svg>
