<svg width="82" height="30" viewBox="0 0 82 30" fill="none" xmlns="http://www.w3.org/2000/svg">
<rect width="82" height="30" rx="15" fill="#D9D9D9"/>
<path d="M27.1336 18.236H38.8656V19.748H27.1336V18.236ZM32.0476 15.464H33.9096V18.6H32.0476V15.464ZM28.3656 9.108H30.2136V11.096H35.7436V9.108H37.5916V15.856H28.3656V9.108ZM30.2136 12.552V14.372H35.7436V12.552H30.2136ZM40.1845 14.96H51.9165V16.416H40.1845V14.96ZM45.1125 13.574H46.9745V15.492H45.1125V13.574ZM41.6405 12.762H50.6705V14.176H41.6405V12.762ZM41.6405 8.604H50.5725V10.018H43.4885V13.56H41.6405V8.604ZM42.9705 10.704H50.2785V12.062H42.9705V10.704ZM46.0365 16.99C48.8785 16.99 50.5305 17.746 50.5305 19.118C50.5305 20.504 48.8785 21.246 46.0365 21.246C43.1805 21.246 41.5285 20.504 41.5285 19.118C41.5285 17.746 43.1805 16.99 46.0365 16.99ZM46.0365 18.362C44.2305 18.362 43.4045 18.586 43.4045 19.118C43.4045 19.664 44.2305 19.888 46.0365 19.888C47.8285 19.888 48.6545 19.664 48.6545 19.118C48.6545 18.586 47.8285 18.362 46.0365 18.362Z" fill="#616161"/>
</svg>
