<svg width="44" height="44" viewBox="0 0 44 44" fill="none" xmlns="http://www.w3.org/2000/svg">
<path d="M20.1667 31.1667H23.8334V20.1667H20.1667V31.1667ZM22.0001 3.66675C11.8801 3.66675 3.66675 11.8801 3.66675 22.0001C3.66675 32.1201 11.8801 40.3334 22.0001 40.3334C32.1201 40.3334 40.3334 32.1201 40.3334 22.0001C40.3334 11.8801 32.1201 3.66675 22.0001 3.66675ZM22.0001 36.6667C13.9151 36.6667 7.33341 30.0851 7.33341 22.0001C7.33341 13.9151 13.9151 7.33341 22.0001 7.33341C30.0851 7.33341 36.6667 13.9151 36.6667 22.0001C36.6667 30.0851 30.0851 36.6667 22.0001 36.6667ZM20.1667 16.5001H23.8334V12.8334H20.1667V16.5001Z" fill="black" fill-opacity="0.87"/>
</svg>
