<svg width="569" height="441" viewBox="0 0 569 441" fill="none" xmlns="http://www.w3.org/2000/svg">
<path d="M180.5 303.905L190.028 309.5L187.499 298.955L195.917 291.86L184.832 290.945L180.5 281L176.168 290.945L165.083 291.86L173.501 298.955L170.973 309.5L180.5 303.905Z" fill="black" fill-opacity="0.87"/>
<path d="M102.5 303.905L112.028 309.5L109.499 298.955L117.917 291.86L106.832 290.945L102.5 281L98.168 290.945L87.0834 291.86L95.5009 298.955L92.9725 309.5L102.5 303.905Z" fill="black" fill-opacity="0.87"/>
<path d="M142.5 303.905L152.028 309.5L149.499 298.955L157.917 291.86L146.832 290.945L142.5 281L138.168 290.945L127.083 291.86L135.501 298.955L132.973 309.5L142.5 303.905Z" fill="black" fill-opacity="0.87"/>
<path d="M218 303.905L227.27 309.5L224.81 298.955L233 291.86L222.215 290.945L218 281L213.785 290.945L203 291.86L211.19 298.955L208.73 309.5L218 303.905Z" fill="black" fill-opacity="0.87"/>
<ellipse cx="28" cy="314" rx="28" ry="29" fill="#F2F2F2"/>
<mask id="mask0_198_256" style="mask-type:alpha" maskUnits="userSpaceOnUse" x="1" y="288" width="55" height="55">
<ellipse cx="28.318" cy="315.611" rx="27.0455" ry="27.3889" fill="#C1C1C1"/>
</mask>
<g mask="url(#mask0_198_256)">
<ellipse cx="28.3181" cy="337.2" rx="21.9545" ry="21.2667" fill="#C1C1C1"/>
</g>
<ellipse cx="28" cy="304.333" rx="9.54545" ry="9.66667" fill="#C1C1C1"/>
<path d="M92.54 338V336.58H95.86V325.32H96.74L92.86 327.74V326.08L96.32 323.9H97.52V336.58H100.64V338H92.54ZM108.292 338.18C106.679 338.18 105.432 337.84 104.552 337.16C103.672 336.467 103.232 335.5 103.232 334.26C103.232 333.287 103.532 332.48 104.132 331.84C104.732 331.187 105.526 330.793 106.512 330.66V330.96C105.619 330.773 104.906 330.367 104.372 329.74C103.839 329.1 103.572 328.347 103.572 327.48C103.572 326.293 103.992 325.373 104.832 324.72C105.672 324.053 106.826 323.72 108.292 323.72C109.772 323.72 110.932 324.053 111.772 324.72C112.612 325.373 113.032 326.293 113.032 327.48C113.032 328.347 112.779 329.1 112.272 329.74C111.779 330.38 111.086 330.78 110.192 330.94V330.66C111.166 330.793 111.939 331.187 112.512 331.84C113.086 332.48 113.372 333.287 113.372 334.26C113.372 335.5 112.932 336.467 112.052 337.16C111.172 337.84 109.919 338.18 108.292 338.18ZM108.292 336.82C109.466 336.82 110.339 336.6 110.912 336.16C111.499 335.72 111.792 335.053 111.792 334.16C111.792 333.28 111.499 332.627 110.912 332.2C110.339 331.76 109.466 331.54 108.292 331.54C107.119 331.54 106.239 331.76 105.652 332.2C105.079 332.627 104.792 333.28 104.792 334.16C104.792 335.053 105.086 335.72 105.672 336.16C106.259 336.6 107.132 336.82 108.292 336.82ZM108.292 330.18C109.306 330.18 110.079 329.953 110.612 329.5C111.159 329.047 111.432 328.42 111.432 327.62C111.432 326.82 111.159 326.2 110.612 325.76C110.079 325.307 109.306 325.08 108.292 325.08C107.279 325.08 106.499 325.307 105.952 325.76C105.419 326.2 105.152 326.82 105.152 327.62C105.152 328.42 105.419 329.047 105.952 329.5C106.499 329.953 107.279 330.18 108.292 330.18ZM120.724 332.32H122.404V335.3H120.724V332.32ZM128.644 321.48H130.304V339.56H128.644V321.48ZM115.904 336.12L115.684 334.74C119.104 334.72 123.604 334.68 127.504 334.18L127.624 335.4C123.604 336.08 119.244 336.12 115.904 336.12ZM116.064 323.68H127.044V325.02H116.064V323.68ZM121.544 326.06C124.144 326.06 125.904 327.38 125.904 329.4C125.904 331.44 124.144 332.74 121.544 332.74C118.964 332.74 117.204 331.44 117.204 329.4C117.204 327.38 118.964 326.06 121.544 326.06ZM121.544 327.34C119.924 327.34 118.784 328.16 118.784 329.4C118.784 330.64 119.924 331.46 121.544 331.46C123.184 331.46 124.324 330.64 124.324 329.4C124.324 328.16 123.184 327.34 121.544 327.34ZM120.724 321.48H122.384V324.42H120.724V321.48ZM147.098 322.12H148.558V323.12C148.558 326.58 145.038 329.06 141.278 329.7L140.618 328.36C143.918 327.86 147.098 325.7 147.098 323.12V322.12ZM147.398 322.12H148.838V323.12C148.838 325.64 152.058 327.86 155.318 328.36L154.658 329.7C150.938 329.06 147.398 326.54 147.398 323.12V322.12ZM147.098 332.68H148.738V339.56H147.098V332.68ZM139.798 331.66H156.138V333.04H139.798V331.66ZM170.856 321.48H172.516V332.3H170.856V321.48ZM172.056 326.14H175.196V327.54H172.056V326.14ZM165.856 322.8H167.636C167.636 327.44 164.416 330.82 159.196 332.36L158.496 331.02C163.096 329.66 165.856 326.94 165.856 323.56V322.8ZM159.296 322.8H166.796V324.18H159.296V322.8ZM166.856 332.52C170.436 332.52 172.716 333.84 172.716 336.02C172.716 338.2 170.436 339.52 166.856 339.52C163.256 339.52 160.956 338.2 160.956 336.02C160.956 333.84 163.256 332.52 166.856 332.52ZM166.856 333.84C164.256 333.84 162.596 334.66 162.596 336.02C162.596 337.38 164.256 338.2 166.856 338.2C169.456 338.2 171.116 337.38 171.116 336.02C171.116 334.66 169.456 333.84 166.856 333.84ZM180.975 322.6H182.295V325.02C182.295 327.72 180.735 330.56 178.075 331.74L177.175 330.44C179.555 329.4 180.975 327.06 180.975 325.02V322.6ZM181.235 322.6H182.555V325.02C182.555 327.02 183.915 329.06 186.235 329.96L185.335 331.22C182.735 330.18 181.235 327.68 181.235 325.02V322.6ZM190.835 321.5H192.415V332.64H190.835V321.5ZM187.955 326.32H191.375V327.68H187.955V326.32ZM186.955 321.84H188.535V332.06H186.955V321.84ZM186.475 333.04C190.195 333.04 192.515 334.24 192.515 336.3C192.515 338.34 190.195 339.52 186.475 339.52C182.735 339.52 180.455 338.34 180.455 336.3C180.455 334.24 182.735 333.04 186.475 333.04ZM186.475 334.34C183.755 334.34 182.075 335.06 182.075 336.3C182.075 337.52 183.755 338.24 186.475 338.24C189.195 338.24 190.855 337.52 190.855 336.3C190.855 335.06 189.195 334.34 186.475 334.34Z" fill="#838383"/>
<rect x="90" y="358" width="472" height="83" fill="#F4F4F4"/>
<path d="M161.74 378.48H163.34V396.56H161.74V378.48ZM155.16 384.96H158.62V386.34H155.16V384.96ZM158.12 378.9H159.68V395.64H158.12V378.9ZM151.68 381.28H152.96V383.58C152.96 387.54 151.44 391.28 148.78 392.96L147.76 391.72C150.28 390.2 151.68 386.9 151.68 383.58V381.28ZM152.02 381.28H153.3V383.58C153.3 386.72 154.66 389.86 157.14 391.3L156.12 392.52C153.48 390.92 152.02 387.36 152.02 383.58V381.28ZM148.26 380.58H156.52V381.96H148.26V380.58ZM178.918 378.46H180.598V396.56H178.918V378.46ZM180.138 385.8H183.478V387.18H180.138V385.8ZM174.298 380.42H175.918C175.918 385.56 173.558 390.2 167.718 393.14L166.798 391.86C171.798 389.32 174.298 385.46 174.298 380.68V380.42ZM167.638 380.42H175.158V381.78H167.638V380.42ZM190.892 388.98H207.292V390.34H190.892V388.98ZM198.212 389.8H199.852V396.56H198.212V389.8ZM192.972 379.48H205.172V386.54H192.972V379.48ZM203.552 380.82H194.612V385.2H203.552V380.82ZM209.59 387.64H225.99V388.96H209.59V387.64ZM211.43 390.46H224.15V391.76H211.43V390.46ZM211.25 394.94H224.31V396.26H211.25V394.94ZM214.15 390.64H215.79V396H214.15V390.64ZM219.77 390.64H221.41V396H219.77V390.64ZM211.67 378.98H223.87V383.14H213.35V385.5H211.71V381.9H222.25V380.28H211.67V378.98ZM211.71 384.84H224.27V386.16H211.71V384.84ZM241.429 378.46H243.089V396.58H241.429V378.46ZM233.549 379.86C236.229 379.86 238.149 382.32 238.149 386.16C238.149 390.02 236.229 392.48 233.549 392.48C230.889 392.48 228.969 390.02 228.969 386.16C228.969 382.32 230.889 379.86 233.549 379.86ZM233.549 381.36C231.789 381.36 230.549 383.24 230.549 386.16C230.549 389.1 231.789 391.02 233.549 391.02C235.329 391.02 236.549 389.1 236.549 386.16C236.549 383.24 235.329 381.36 233.549 381.36ZM266.042 381.22H269.182V382.62H266.042V381.22ZM266.042 385.1H269.182V386.48H266.042V385.1ZM264.882 378.48H266.542V389.22H264.882V378.48ZM254.802 390.08H266.542V396.56H264.882V391.42H254.802V390.08ZM257.562 379.54C260.282 379.54 262.282 381.3 262.282 383.84C262.282 386.36 260.282 388.1 257.562 388.1C254.842 388.1 252.842 386.36 252.842 383.84C252.842 381.3 254.842 379.54 257.562 379.54ZM257.562 380.96C255.762 380.96 254.462 382.12 254.462 383.84C254.462 385.54 255.762 386.72 257.562 386.72C259.362 386.72 260.662 385.54 260.662 383.84C260.662 382.12 259.362 380.96 257.562 380.96ZM283.58 378.5H285.24V392.06H283.58V378.5ZM284.72 384.42H287.92V385.82H284.72V384.42ZM271.26 380.68H281.94V382.02H271.26V380.68ZM276.6 383.02C279.16 383.02 280.92 384.36 280.92 386.4C280.92 388.42 279.16 389.76 276.6 389.76C274.02 389.76 272.26 388.42 272.26 386.4C272.26 384.36 274.02 383.02 276.6 383.02ZM276.6 384.32C274.96 384.32 273.84 385.14 273.84 386.4C273.84 387.64 274.96 388.46 276.6 388.46C278.22 388.46 279.34 387.64 279.34 386.4C279.34 385.14 278.22 384.32 276.6 384.32ZM275.76 378.48H277.42V381.38H275.76V378.48ZM273.98 394.8H286.06V396.16H273.98V394.8ZM273.98 390.98H275.64V395.38H273.98V390.98ZM303.659 378.48H305.259V396.56H303.659V378.48ZM296.159 385.38H300.699V386.74H296.159V385.38ZM300.019 378.9H301.599V395.64H300.019V378.9ZM290.579 390.82H291.739C294.559 390.82 296.259 390.74 298.259 390.32L298.419 391.7C296.359 392.14 294.619 392.22 291.739 392.22H290.579V390.82ZM290.579 380.68H297.379V382.04H292.219V391.36H290.579V380.68ZM315.892 380.4H327.532V381.74H315.892V380.4ZM314.132 392.54H330.472V393.92H314.132V392.54ZM326.652 380.4H328.272V382.2C328.272 384.52 328.272 387.1 327.592 391L325.932 390.84C326.652 387.14 326.652 384.44 326.652 382.2V380.4ZM338.325 389.18H354.725V390.54H338.325V389.18ZM345.645 389.82H347.285V396.56H345.645V389.82ZM340.385 379.2H342.045V381.68H350.985V379.2H352.625V387.02H340.385V379.2ZM342.045 383.02V385.68H350.985V383.02H342.045ZM357.024 388.02H373.404V389.38H357.024V388.02ZM364.504 388.7H366.164V392.86H364.504V388.7ZM359.104 394.8H371.584V396.16H359.104V394.8ZM359.104 391.26H360.744V395.32H359.104V391.26ZM359.204 379.04H360.844V381.34H369.584V379.04H371.244V386.28H359.204V379.04ZM360.844 382.64V384.94H369.584V382.64H360.844ZM382.977 380.28H394.617V381.66H382.977V380.28ZM381.257 392.66H397.597V394.04H381.257V392.66ZM387.597 386.2H389.257V393.34H387.597V386.2ZM393.997 380.28H395.637V382.08C395.637 384.32 395.637 386.8 394.977 390.46L393.317 390.24C393.997 386.78 393.997 384.24 393.997 382.08V380.28ZM413.155 378.46H414.815V396.58H413.155V378.46ZM409.595 382.6H413.595V383.96H409.595V382.6ZM400.615 390.98H401.955C404.755 390.98 407.055 390.9 409.815 390.46L409.975 391.84C407.135 392.28 404.815 392.38 401.955 392.38H400.615V390.98ZM400.575 380.1H408.475V386.58H402.255V391.3H400.615V385.22H406.835V381.48H400.575V380.1ZM409.475 387.54H413.475V388.9H409.475V387.54ZM418.614 381.56H427.574V382.92H418.614V381.56ZM423.094 384.12C425.354 384.12 426.994 385.82 426.994 388.26C426.994 390.68 425.354 392.38 423.094 392.38C420.854 392.38 419.214 390.68 419.214 388.26C419.214 385.82 420.854 384.12 423.094 384.12ZM423.094 385.54C421.714 385.54 420.714 386.66 420.714 388.26C420.714 389.86 421.714 390.98 423.094 390.98C424.494 390.98 425.514 389.86 425.514 388.26C425.514 386.66 424.494 385.54 423.094 385.54ZM432.354 378.48H433.954V396.56H432.354V378.48ZM429.474 386.08H432.894V387.46H429.474V386.08ZM428.494 378.88H430.054V395.68H428.494V378.88ZM422.294 379H423.934V382.4H422.294V379ZM444.592 380.26H446.032V381.02C446.032 384.26 442.592 386.64 438.952 387.26L438.312 385.94C441.492 385.48 444.592 383.4 444.592 381.02V380.26ZM445.012 380.26H446.432V381.02C446.432 383.4 449.552 385.48 452.712 385.94L452.092 387.26C448.432 386.64 445.012 384.26 445.012 381.02V380.26ZM444.652 389.66H446.292V396.56H444.652V389.66ZM437.352 388.78H453.692V390.14H437.352V388.78ZM438.872 379.6H452.112V380.94H438.872V379.6ZM460.811 380.04H462.171V383.28C462.171 387.44 459.931 391.3 456.971 392.8L455.951 391.44C458.631 390.16 460.811 386.7 460.811 383.28V380.04ZM461.091 380.04H462.451V383.28C462.451 386.58 464.611 389.9 467.291 391.14L466.291 392.46C463.351 391.02 461.091 387.3 461.091 383.28V380.04ZM469.171 378.46H470.831V396.58H469.171V378.46ZM483.409 381.66H488.469V383.02H483.409V381.66ZM483.409 385.52H488.509V386.9H483.409V385.52ZM475.569 380.04H483.829V388.52H475.569V380.04ZM482.189 381.38H477.189V387.18H482.189V381.38ZM487.949 378.5H489.609V391.7H487.949V378.5ZM477.989 394.8H490.049V396.16H477.989V394.8ZM477.989 390.5H479.649V395.42H477.989V390.5ZM502.468 384.6H507.508V385.96H502.468V384.6ZM498.108 380.04H499.468V383.26C499.468 387.32 497.328 391.2 494.468 392.74L493.408 391.42C496.068 390.1 498.108 386.62 498.108 383.26V380.04ZM498.428 380.04H499.768V383.26C499.768 386.56 501.808 389.84 504.428 391.08L503.448 392.42C500.528 390.94 498.428 387.22 498.428 383.26V380.04ZM506.688 378.46H508.328V396.58H506.688V378.46ZM156.38 401.24H161.56V402.58H156.38V401.24ZM148 408.76H164.32V410.12H148V408.76ZM155.68 405.32H157.32V409.34H155.68V405.32ZM160.86 401.24H162.48V402.04C162.48 403.16 162.48 405 161.96 407.44L160.34 407.28C160.86 404.8 160.86 403.12 160.86 402.04V401.24ZM149.4 401.24H154.16V402.58H149.4V401.24ZM153.28 401.24H154.88V401.86C154.88 402.88 154.88 404.84 154.04 407.46L152.44 407.22C153.28 404.6 153.28 402.86 153.28 401.86V401.24ZM150.04 412.08H162.28V418.32H150.04V412.08ZM160.66 413.4H151.66V416.98H160.66V413.4ZM175.078 401.24H180.258V402.58H175.078V401.24ZM166.698 408.76H183.018V410.12H166.698V408.76ZM174.378 405.32H176.018V409.34H174.378V405.32ZM179.558 401.24H181.178V402.04C181.178 403.16 181.178 405 180.658 407.44L179.038 407.28C179.558 404.8 179.558 403.12 179.558 402.04V401.24ZM168.098 401.24H172.858V402.58H168.098V401.24ZM171.978 401.24H173.578V401.86C173.578 402.88 173.578 404.84 172.738 407.46L171.138 407.22C171.978 404.6 171.978 402.86 171.978 401.86V401.24ZM168.738 412.08H180.978V418.32H168.738V412.08ZM179.358 413.4H170.358V416.98H179.358V413.4ZM198.517 400.48H200.177V418.56H198.517V400.48ZM185.797 403.4H196.637V404.74H185.797V403.4ZM191.237 406.22C193.837 406.22 195.717 407.94 195.717 410.38C195.717 412.82 193.837 414.54 191.237 414.54C188.637 414.54 186.777 412.82 186.777 410.38C186.777 407.94 188.637 406.22 191.237 406.22ZM191.237 407.6C189.577 407.6 188.357 408.74 188.357 410.38C188.357 412 189.577 413.16 191.237 413.16C192.897 413.16 194.117 412 194.117 410.38C194.117 408.74 192.897 407.6 191.237 407.6ZM190.377 400.66H192.037V404.22H190.377V400.66ZM210.57 401.98H212.23V404.68H217.91V401.98H219.55V410.12H210.57V401.98ZM212.23 406V408.76H217.91V406H212.23ZM214.23 409.64H215.89V413.86H214.23V409.64ZM221.83 400.48H223.49V418.56H221.83V400.48ZM223.01 408.06H226.35V409.46H223.01V408.06ZM209.63 414.86L209.39 413.46C212.65 413.46 217.01 413.44 220.69 412.94L220.83 414.16C217.01 414.82 212.79 414.88 209.63 414.86ZM235.549 402.26H236.989V403.02C236.989 406.26 233.549 408.64 229.909 409.26L229.269 407.94C232.449 407.48 235.549 405.4 235.549 403.02V402.26ZM235.969 402.26H237.389V403.02C237.389 405.4 240.509 407.48 243.669 407.94L243.049 409.26C239.389 408.64 235.969 406.26 235.969 403.02V402.26ZM235.609 411.66H237.249V418.56H235.609V411.66ZM228.309 410.78H244.649V412.14H228.309V410.78ZM229.829 401.6H243.069V402.94H229.829V401.6ZM260.207 400.46H261.887V418.58H260.207V400.46ZM256.307 404.4H261.107V405.78H256.307V404.4ZM256.307 408.9H261.107V410.3H256.307V408.9ZM251.667 402.04H253.007V405.26C253.007 409.32 250.887 413.2 248.027 414.74L246.967 413.42C249.627 412.1 251.667 408.62 251.667 405.26V402.04ZM251.987 402.04H253.327V405.26C253.327 408.58 255.367 411.9 257.987 413.14L256.987 414.48C254.087 412.98 251.987 409.24 251.987 405.26V402.04ZM274.725 406.6H279.765V407.96H274.725V406.6ZM270.365 402.04H271.725V405.26C271.725 409.32 269.585 413.2 266.725 414.74L265.665 413.42C268.325 412.1 270.365 408.62 270.365 405.26V402.04ZM270.685 402.04H272.025V405.26C272.025 408.56 274.065 411.84 276.685 413.08L275.705 414.42C272.785 412.94 270.685 409.22 270.685 405.26V402.04ZM278.945 400.46H280.585V418.58H278.945V400.46ZM303.159 400.48H304.819V418.6H303.159V400.48ZM297.599 406.44H303.699V407.8H297.599V406.44ZM290.899 402.5H292.539V413.7H290.899V402.5ZM290.899 412.82H292.299C295.099 412.82 297.599 412.66 300.379 412.08L300.579 413.48C297.699 414.04 295.159 414.22 292.299 414.22H290.899V412.82ZM308.597 410.98H324.997V412.34H308.597V410.98ZM315.917 411.8H317.557V418.56H315.917V411.8ZM310.677 401.48H322.877V408.54H310.677V401.48ZM321.257 402.82H312.317V407.2H321.257V402.82ZM340.15 405.84H341.79V408.6H340.15V405.84ZM339.91 401.58H341.37V402.14C341.37 404.86 338.01 406.6 334.21 406.96L333.67 405.7C336.93 405.44 339.91 404.04 339.91 402.14V401.58ZM340.63 401.58H342.07V402.14C342.07 404.02 345.05 405.44 348.31 405.7L347.77 406.96C343.99 406.6 340.63 404.86 340.63 402.14V401.58ZM334.31 401.04H347.69V402.34H334.31V401.04ZM334.33 411.7H347.65V413.02H334.33V411.7ZM332.81 407.98H349.21V409.32H332.81V407.98ZM340.99 413.9C344.47 413.9 346.41 414.72 346.41 416.28C346.41 417.86 344.47 418.66 340.99 418.66C337.51 418.66 335.55 417.86 335.55 416.28C335.55 414.72 337.51 413.9 340.99 413.9ZM340.99 415.04C338.59 415.04 337.25 415.46 337.25 416.28C337.25 417.1 338.59 417.52 340.99 417.52C343.37 417.52 344.73 417.1 344.73 416.28C344.73 415.46 343.37 415.04 340.99 415.04ZM340.17 410.04H341.81V412.54H340.17V410.04ZM356.569 401.54C359.289 401.54 361.289 403.28 361.289 405.8C361.289 408.32 359.289 410.06 356.569 410.06C353.849 410.06 351.849 408.32 351.849 405.8C351.849 403.28 353.849 401.54 356.569 401.54ZM356.569 402.94C354.769 402.94 353.469 404.1 353.469 405.8C353.469 407.5 354.769 408.66 356.569 408.66C358.369 408.66 359.669 407.5 359.669 405.8C359.669 404.1 358.369 402.94 356.569 402.94ZM363.889 400.48H365.549V410.78H363.889V400.48ZM365.089 404.8H368.229V406.18H365.089V404.8ZM355.849 411.58H357.129V412.56C357.129 414.94 355.669 417.34 353.069 418.34L352.229 417.1C354.509 416.26 355.849 414.3 355.849 412.56V411.58ZM356.209 411.58H357.449V412.56C357.449 414.4 358.509 416.36 360.709 417.24L359.989 418.5C357.369 417.48 356.209 414.98 356.209 412.56V411.58ZM362.529 411.58H363.769V412.56C363.769 414.7 362.589 417.4 359.989 418.5L359.269 417.24C361.449 416.26 362.529 414.14 362.529 412.56V411.58ZM362.849 411.58H364.149V412.56C364.149 414.44 365.469 416.32 367.749 417.1L366.929 418.34C364.289 417.38 362.849 415.08 362.849 412.56V411.58ZM372.287 411.32H373.927V413.42H382.767V411.32H384.427V418.32H372.287V411.32ZM373.927 414.7V416.98H382.767V414.7H373.927ZM370.207 408.72H386.547V410.06H370.207V408.72ZM377.547 400.68H378.967V401.48C378.967 404.62 375.467 406.88 371.747 407.44L371.147 406.14C374.407 405.7 377.547 403.76 377.547 401.48V400.68ZM377.807 400.68H379.227V401.48C379.227 403.72 382.407 405.7 385.627 406.14L385.007 407.44C381.327 406.88 377.807 404.58 377.807 401.48V400.68ZM402.066 400.48H403.726V418.56H402.066V400.48ZM390.066 402.24H391.706V413.44H390.066V402.24ZM390.066 412.46H391.546C394.286 412.46 397.146 412.26 400.206 411.62L400.406 413.04C397.266 413.68 394.406 413.9 391.546 413.9H390.066V412.46ZM419.844 400.46H421.524V418.58H419.844V400.46ZM421.124 407.6H424.484V409H421.124V407.6ZM408.384 412.68H409.804C413.144 412.68 415.484 412.56 418.184 412.06L418.364 413.46C415.584 413.98 413.204 414.08 409.804 414.08H408.384V412.68ZM408.384 402.22H416.784V403.58H410.024V413.3H408.384V402.22ZM426.583 417V414.96H428.623V417H426.583Z" fill="black"/>
<rect x="452" y="300" width="75" height="32" rx="16" fill="#F4F4F4"/>
<path d="M490.817 317.584H492.665V322.26H490.817V317.584ZM485.903 317.038H497.621V318.55H485.903V317.038ZM490.803 311.606H492.441V311.914C492.441 314.084 490.565 315.974 487.135 316.38L486.491 314.924C489.417 314.588 490.803 313.118 490.803 311.914V311.606ZM491.041 311.606H492.679V311.914C492.679 313.09 494.079 314.588 496.991 314.924L496.333 316.38C492.917 315.988 491.041 314.028 491.041 311.914V311.606ZM486.953 310.766H496.557V312.236H486.953V310.766ZM490.817 309.31H492.665V311.27H490.817V309.31ZM501.88 311.816H503.392V312.32C503.392 314.686 502.244 316.8 499.78 317.57L498.884 316.114C500.984 315.456 501.88 313.888 501.88 312.32V311.816ZM502.216 311.816H503.742V312.32C503.742 313.776 504.652 315.274 506.752 315.904L505.856 317.36C503.406 316.632 502.216 314.588 502.216 312.32V311.816ZM499.332 310.808H506.29V312.264H499.332V310.808ZM501.88 309.38H503.742V311.354H501.88V309.38ZM505.884 313.048H508.894V314.574H505.884V313.048ZM507.956 309.296H509.818V318.886H507.956V309.296ZM501.264 320.538H510.112V322.022H501.264V320.538ZM501.264 318.088H503.126V321.518H501.264V318.088Z" fill="black"/>
<circle cx="547" cy="315" r="15" fill="#F4F4F4"/>
<path d="M464.708 321.875H467.542V313.375H464.708V321.875ZM480.292 314.083C480.292 313.304 479.654 312.667 478.875 312.667H474.405L475.078 309.43L475.1 309.203C475.1 308.913 474.979 308.643 474.788 308.452L474.037 307.708L469.376 312.376C469.114 312.631 468.958 312.986 468.958 313.375V320.458C468.958 321.238 469.596 321.875 470.375 321.875H476.75C477.338 321.875 477.841 321.521 478.053 321.011L480.192 316.017C480.256 315.854 480.292 315.684 480.292 315.5V314.147L480.285 314.14L480.292 314.083Z" fill="black" fill-opacity="0.87"/>
<path d="M546.083 317.75H547.917V319.583H546.083V317.75ZM546.083 310.417H547.917V315.917H546.083V310.417ZM546.991 305.833C541.931 305.833 537.833 309.94 537.833 315C537.833 320.06 541.931 324.167 546.991 324.167C552.06 324.167 556.167 320.06 556.167 315C556.167 309.94 552.06 305.833 546.991 305.833ZM547 322.333C542.948 322.333 539.667 319.052 539.667 315C539.667 310.948 542.948 307.667 547 307.667C551.052 307.667 554.333 310.948 554.333 315C554.333 319.052 551.052 322.333 547 322.333Z" fill="black" fill-opacity="0.87"/>
<path d="M181.5 75.905L191.028 81.5L188.499 70.955L196.917 63.86L185.832 62.945L181.5 53L177.168 62.945L166.083 63.86L174.501 70.955L171.973 81.5L181.5 75.905Z" fill="black" fill-opacity="0.87"/>
<path d="M103.5 75.905L113.028 81.5L110.499 70.955L118.917 63.86L107.832 62.945L103.5 53L99.168 62.945L88.0834 63.86L96.5009 70.955L93.9725 81.5L103.5 75.905Z" fill="black" fill-opacity="0.87"/>
<path d="M143.5 75.905L153.028 81.5L150.499 70.955L158.917 63.86L147.832 62.945L143.5 53L139.168 62.945L128.083 63.86L136.501 70.955L133.973 81.5L143.5 75.905Z" fill="black" fill-opacity="0.87"/>
<path d="M219 75.905L228.27 81.5L225.81 70.955L234 63.86L223.215 62.945L219 53L214.785 62.945L204 63.86L212.19 70.955L209.73 81.5L219 75.905Z" fill="black" fill-opacity="0.87"/>
<path d="M271.917 63.86L260.832 62.93L256.5 53L252.168 62.945L241.083 63.86L249.501 70.955L246.973 81.5L256.5 75.905L266.028 81.5L263.515 70.955L271.917 63.86ZM256.5 73.1V59.15L259.136 65.21L265.889 65.78L260.77 70.1L262.312 76.52L256.5 73.1Z" fill="black" fill-opacity="0.87"/>
<ellipse cx="29" cy="86" rx="28" ry="29" fill="#F2F2F2"/>
<mask id="mask1_198_256" style="mask-type:alpha" maskUnits="userSpaceOnUse" x="2" y="60" width="55" height="55">
<ellipse cx="29.318" cy="87.6111" rx="27.0455" ry="27.3889" fill="#C1C1C1"/>
</mask>
<g mask="url(#mask1_198_256)">
<ellipse cx="29.3181" cy="109.2" rx="21.9545" ry="21.2667" fill="#C1C1C1"/>
</g>
<ellipse cx="29" cy="76.3332" rx="9.54545" ry="9.66667" fill="#C1C1C1"/>
<path d="M92.72 110V108.76L97.72 103.54C98.3733 102.86 98.86 102.213 99.18 101.6C99.5133 100.973 99.68 100.327 99.68 99.66C99.68 98.8467 99.4267 98.2333 98.92 97.82C98.4133 97.3933 97.68 97.18 96.72 97.18C95.9733 97.18 95.28 97.3133 94.64 97.58C94.0133 97.8333 93.4067 98.24 92.82 98.8L92.22 97.5C92.7533 96.9667 93.4333 96.54 94.26 96.22C95.0867 95.8867 95.96 95.72 96.88 95.72C98.3067 95.72 99.4067 96.0533 100.18 96.72C100.953 97.3733 101.34 98.3067 101.34 99.52C101.34 100.413 101.12 101.267 100.68 102.08C100.253 102.88 99.6267 103.707 98.8 104.56L94.38 109.04V108.58H101.94V110H92.72ZM117.492 93.48H119.152V106.88H117.492V93.48ZM112.392 95.84H118.112V97.18H112.392V95.84ZM107.592 109.8H119.632V111.16H107.592V109.8ZM107.592 105.72H109.252V110.42H107.592V105.72ZM105.332 94.8H106.992V103.32H105.332V94.8ZM105.332 102.8H106.692C109.272 102.8 111.692 102.66 114.512 102.16L114.672 103.54C111.772 104.06 109.352 104.18 106.692 104.18H105.332V102.8ZM112.392 99.28H118.112V100.64H112.392V99.28ZM135.225 110V106.94H128.505V105.74L135.485 95.9H136.845V105.6H139.005V106.94H136.845V110H135.225ZM135.225 105.6V97.86H135.665L129.865 106.02V105.6H135.225ZM154.518 93.48H156.118V111.56H154.518V93.48ZM151.598 100.74H155.058V102.1H151.598V100.74ZM146.918 95.8H148.518C148.518 100.46 146.918 104.78 141.758 107.68L140.778 106.5C145.318 103.96 146.918 100.3 146.918 96.12V95.8ZM141.478 95.8H147.478V97.18H141.478V95.8ZM150.498 93.96H152.078V110.68H150.498V93.96ZM164.336 100.96H165.996V104.18H164.336V100.96ZM172.636 93.48H174.296V104.12H172.636V93.48ZM159.636 101.52L159.436 100.28C162.916 100.28 167.336 100.26 171.196 99.82L171.296 100.9C167.336 101.48 163.016 101.52 159.636 101.52ZM162.176 104.78H174.296V108.54H163.836V110.58H162.216V107.44H172.656V105.98H162.176V104.78ZM162.216 110.16H174.896V111.36H162.216V110.16ZM169.036 102.08H173.156V103.16H169.036V102.08ZM165.276 93.82C167.956 93.82 169.716 94.86 169.716 96.54C169.716 98.22 167.956 99.26 165.276 99.26C162.576 99.26 160.816 98.22 160.816 96.54C160.816 94.86 162.576 93.82 165.276 93.82ZM165.276 94.98C163.496 94.98 162.356 95.58 162.356 96.54C162.356 97.5 163.496 98.1 165.276 98.1C167.016 98.1 168.156 97.5 168.156 96.54C168.156 95.58 167.016 94.98 165.276 94.98ZM191.009 94.12H192.469V95.12C192.469 98.58 188.949 101.06 185.189 101.7L184.529 100.36C187.829 99.86 191.009 97.7 191.009 95.12V94.12ZM191.309 94.12H192.749V95.12C192.749 97.64 195.969 99.86 199.229 100.36L198.569 101.7C194.849 101.06 191.309 98.54 191.309 95.12V94.12ZM191.009 104.68H192.649V111.56H191.009V104.68ZM183.709 103.66H200.049V105.04H183.709V103.66ZM214.768 93.48H216.428V104.3H214.768V93.48ZM215.968 98.14H219.108V99.54H215.968V98.14ZM209.768 94.8H211.548C211.548 99.44 208.328 102.82 203.108 104.36L202.408 103.02C207.008 101.66 209.768 98.94 209.768 95.56V94.8ZM203.208 94.8H210.708V96.18H203.208V94.8ZM210.768 104.52C214.348 104.52 216.628 105.84 216.628 108.02C216.628 110.2 214.348 111.52 210.768 111.52C207.168 111.52 204.868 110.2 204.868 108.02C204.868 105.84 207.168 104.52 210.768 104.52ZM210.768 105.84C208.168 105.84 206.508 106.66 206.508 108.02C206.508 109.38 208.168 110.2 210.768 110.2C213.368 110.2 215.028 109.38 215.028 108.02C215.028 106.66 213.368 105.84 210.768 105.84ZM224.886 94.6H226.206V97.02C226.206 99.72 224.646 102.56 221.986 103.74L221.086 102.44C223.466 101.4 224.886 99.06 224.886 97.02V94.6ZM225.146 94.6H226.466V97.02C226.466 99.02 227.826 101.06 230.146 101.96L229.246 103.22C226.646 102.18 225.146 99.68 225.146 97.02V94.6ZM234.746 93.5H236.326V104.64H234.746V93.5ZM231.866 98.32H235.286V99.68H231.866V98.32ZM230.866 93.84H232.446V104.06H230.866V93.84ZM230.386 105.04C234.106 105.04 236.426 106.24 236.426 108.3C236.426 110.34 234.106 111.52 230.386 111.52C226.646 111.52 224.366 110.34 224.366 108.3C224.366 106.24 226.646 105.04 230.386 105.04ZM230.386 106.34C227.666 106.34 225.986 107.06 225.986 108.3C225.986 109.52 227.666 110.24 230.386 110.24C233.106 110.24 234.766 109.52 234.766 108.3C234.766 107.06 233.106 106.34 230.386 106.34Z" fill="#838383"/>
<rect x="91" y="126" width="468" height="114" fill="#F4F4F4"/>
<path d="M140.52 152.48H153.8V153.84H140.52V152.48ZM140.6 158.76H153.72V160.12H140.6V158.76ZM143.26 153.54H144.92V159.5H143.26V153.54ZM149.42 153.54H151.06V159.5H149.42V153.54ZM138.98 162.2H155.36V163.56H138.98V162.2ZM146.32 162.8H147.98V169.56H146.32V162.8ZM169.918 151.48H171.598V169.56H169.918V151.48ZM171.198 158.58H174.558V160H171.198V158.58ZM158.398 153H160.038V157.78H165.198V153H166.838V165.22H158.398V153ZM160.038 159.1V163.86H165.198V159.1H160.038ZM183.717 161.7H185.377V166.2H183.717V161.7ZM184.557 152.66C188.377 152.66 191.117 154.52 191.117 157.4C191.117 160.28 188.377 162.14 184.557 162.14C180.737 162.14 177.977 160.28 177.977 157.4C177.977 154.52 180.737 152.66 184.557 152.66ZM184.557 153.98C181.677 153.98 179.577 155.34 179.577 157.4C179.577 159.46 181.677 160.82 184.557 160.82C187.417 160.82 189.517 159.46 189.517 157.4C189.517 155.34 187.417 153.98 184.557 153.98ZM176.397 165.88H192.777V167.26H176.397V165.88ZM209.87 155.74H214.43V157.12H209.87V155.74ZM205.13 152.58H206.47V154.8C206.47 158.3 204.51 161.22 201.49 162.44L200.63 161.12C203.31 160.12 205.13 157.56 205.13 154.8V152.58ZM205.45 152.58H206.79V154.86C206.79 157.38 208.55 159.76 211.17 160.72L210.27 162C207.39 160.88 205.45 158.08 205.45 154.86V152.58ZM213.81 151.5H215.47V165.02H213.81V151.5ZM203.85 167.8H215.91V169.16H203.85V167.8ZM203.85 163.52H205.51V168.44H203.85V163.52ZM223.089 152.6H224.409V155.02C224.409 157.72 222.849 160.56 220.189 161.74L219.289 160.44C221.669 159.4 223.089 157.06 223.089 155.02V152.6ZM223.349 152.6H224.669V155.02C224.669 157.02 226.029 159.06 228.349 159.96L227.449 161.22C224.849 160.18 223.349 157.68 223.349 155.02V152.6ZM232.949 151.5H234.529V162.64H232.949V151.5ZM230.069 156.32H233.489V157.68H230.069V156.32ZM229.069 151.84H230.649V162.06H229.069V151.84ZM228.589 163.04C232.309 163.04 234.629 164.24 234.629 166.3C234.629 168.34 232.309 169.52 228.589 169.52C224.849 169.52 222.569 168.34 222.569 166.3C222.569 164.24 224.849 163.04 228.589 163.04ZM228.589 164.34C225.869 164.34 224.189 165.06 224.189 166.3C224.189 167.52 225.869 168.24 228.589 168.24C231.309 168.24 232.969 167.52 232.969 166.3C232.969 165.06 231.309 164.34 228.589 164.34ZM251.147 151.48H252.807V161.72H251.147V151.48ZM239.127 152.52H240.767V159.88H239.127V152.52ZM239.127 158.96H240.587C243.607 158.96 246.307 158.76 249.187 158.16L249.427 159.52C246.427 160.16 243.707 160.36 240.587 160.36H239.127V158.96ZM241.127 162.6H252.807V169.32H241.127V162.6ZM251.187 163.92H242.747V167.96H251.187V163.92ZM275.46 151.48H277.12V169.6H275.46V151.48ZM269.9 157.44H276V158.8H269.9V157.44ZM263.2 153.5H264.84V164.7H263.2V153.5ZM263.2 163.82H264.6C267.4 163.82 269.9 163.66 272.68 163.08L272.88 164.48C270 165.04 267.46 165.22 264.6 165.22H263.2V163.82ZM280.899 161.98H297.299V163.34H280.899V161.98ZM288.219 162.8H289.859V169.56H288.219V162.8ZM282.979 152.48H295.179V159.54H282.979V152.48ZM293.559 153.82H284.619V158.2H293.559V153.82ZM318.272 151.5H319.952V164.86H318.272V151.5ZM308.332 167.8H320.492V169.16H308.332V167.8ZM308.332 163.6H309.972V168.52H308.332V163.6ZM310.032 154.94H311.392V155.7C311.392 158.94 309.332 161.62 306.312 162.66L305.492 161.36C308.172 160.48 310.032 158.2 310.032 155.7V154.94ZM310.312 154.94H311.672V155.7C311.672 158.06 313.552 160.2 316.252 161.04L315.452 162.34C312.392 161.36 310.312 158.8 310.312 155.7V154.94ZM305.912 153.9H315.752V155.24H305.912V153.9ZM310.032 151.56H311.672V154.54H310.032V151.56ZM333.47 155.5H338.13V156.86H333.47V155.5ZM328.39 153.02H329.75V154.22C329.75 157.26 327.71 160 324.69 161.02L323.89 159.72C326.53 158.82 328.39 156.54 328.39 154.22V153.02ZM328.71 153.02H330.07V154.24C330.07 156.4 331.83 158.48 334.43 159.3L333.63 160.6C330.67 159.64 328.71 157.12 328.71 154.24V153.02ZM324.39 152.4H334.05V153.76H324.39V152.4ZM337.03 151.48H338.69V160.8H337.03V151.48ZM327.05 161.72H338.69V166.06H328.71V168.86H327.09V164.82H337.05V163.04H327.05V161.72ZM327.09 168.04H339.35V169.36H327.09V168.04ZM354.769 151.48H356.429V169.56H354.769V151.48ZM356.029 158.9H359.389V160.3H356.029V158.9ZM342.429 154.36H353.089V155.72H342.429V154.36ZM347.829 157.22C350.389 157.22 352.229 158.94 352.229 161.38C352.229 163.82 350.389 165.54 347.829 165.54C345.289 165.54 343.429 163.82 343.429 161.38C343.429 158.94 345.289 157.22 347.829 157.22ZM347.829 158.6C346.189 158.6 345.009 159.74 345.009 161.38C345.009 163 346.189 164.16 347.829 164.16C349.469 164.16 350.649 163 350.649 161.38C350.649 159.74 349.469 158.6 347.829 158.6ZM346.969 151.7H348.629V154.98H346.969V151.7ZM365.987 153.04H367.347V156.28C367.347 160.44 365.107 164.3 362.147 165.8L361.127 164.44C363.807 163.16 365.987 159.7 365.987 156.28V153.04ZM366.267 153.04H367.627V156.28C367.627 159.58 369.787 162.9 372.467 164.14L371.467 165.46C368.527 164.02 366.267 160.3 366.267 156.28V153.04ZM374.347 151.46H376.007V169.58H374.347V151.46ZM381.646 153.28H393.286V154.66H381.646V153.28ZM379.926 165.66H396.266V167.04H379.926V165.66ZM386.266 159.2H387.926V166.34H386.266V159.2ZM392.666 153.28H394.306V155.08C394.306 157.32 394.306 159.8 393.646 163.46L391.986 163.24C392.666 159.78 392.666 157.24 392.666 155.08V153.28ZM408.599 154.06H409.919V157C409.919 160.76 407.619 164.64 404.799 166.08L403.839 164.76C406.419 163.5 408.599 160.06 408.599 157V154.06ZM408.899 154.06H410.219V157C410.219 159.86 412.259 163.08 414.879 164.32L413.939 165.64C411.079 164.22 408.899 160.58 408.899 157V154.06ZM404.479 153.32H414.219V154.72H404.479V153.32ZM416.359 151.48H418.039V169.56H416.359V151.48ZM417.639 158.78H420.999V160.18H417.639V158.78ZM429.957 157.94H433.417V159.32H429.957V157.94ZM426.577 153.18H427.877V156.62C427.877 160.4 426.297 164.06 423.657 165.68L422.617 164.42C425.097 162.96 426.577 159.72 426.577 156.62V153.18ZM426.897 153.18H428.177V156.56C428.177 159.46 429.537 162.54 431.917 163.98L430.957 165.28C428.357 163.68 426.897 160.08 426.897 156.56V153.18ZM436.597 151.48H438.197V169.56H436.597V151.48ZM432.937 151.86H434.497V168.66H432.937V151.86ZM443.596 159.92H456.016V161.28H443.596V159.92ZM441.536 165.9H457.916V167.3H441.536V165.9ZM448.856 160.5H450.516V166.46H448.856V160.5ZM443.596 152.92H455.836V154.28H445.256V160.52H443.596V152.92ZM475.389 156.16H479.469V157.54H475.389V156.16ZM478.949 151.48H480.609V162.26H478.949V151.48ZM474.669 162.8C478.389 162.8 480.689 164.06 480.689 166.18C480.689 168.32 478.389 169.54 474.669 169.54C470.929 169.54 468.629 168.32 468.629 166.18C468.629 164.06 470.929 162.8 474.669 162.8ZM474.669 164.1C471.949 164.1 470.289 164.86 470.289 166.18C470.289 167.48 471.949 168.24 474.669 168.24C477.389 168.24 479.049 167.48 479.049 166.18C479.049 164.86 477.389 164.1 474.669 164.1ZM470.349 153.3H471.709V154.76C471.709 158.1 469.669 160.96 466.669 162.08L465.809 160.76C468.489 159.78 470.349 157.36 470.349 154.76V153.3ZM470.669 153.3H472.009V154.76C472.009 157.1 473.769 159.34 476.389 160.26L475.549 161.58C472.609 160.52 470.669 157.8 470.669 154.76V153.3ZM466.309 152.8H475.969V154.16H466.309V152.8ZM496.808 151.48H498.468V160.68H496.808V151.48ZM497.748 155.36H501.128V156.74H497.748V155.36ZM485.188 152.5H493.488V159.74H485.188V152.5ZM491.868 153.82H486.808V158.42H491.868V153.82ZM486.988 161.54H498.468V165.98H488.668V168.68H487.028V164.72H496.848V162.86H486.988V161.54ZM487.028 167.98H499.128V169.32H487.028V167.98ZM147.38 174.24H152.56V175.58H147.38V174.24ZM139 181.76H155.32V183.12H139V181.76ZM146.68 178.32H148.32V182.34H146.68V178.32ZM151.86 174.24H153.48V175.04C153.48 176.16 153.48 178 152.96 180.44L151.34 180.28C151.86 177.8 151.86 176.12 151.86 175.04V174.24ZM140.4 174.24H145.16V175.58H140.4V174.24ZM144.28 174.24H145.88V174.86C145.88 175.88 145.88 177.84 145.04 180.46L143.44 180.22C144.28 177.6 144.28 175.86 144.28 174.86V174.24ZM141.04 185.08H153.28V191.32H141.04V185.08ZM151.66 186.4H142.66V189.98H151.66V186.4ZM166.078 174.24H171.258V175.58H166.078V174.24ZM157.698 181.76H174.018V183.12H157.698V181.76ZM165.378 178.32H167.018V182.34H165.378V178.32ZM170.558 174.24H172.178V175.04C172.178 176.16 172.178 178 171.658 180.44L170.038 180.28C170.558 177.8 170.558 176.12 170.558 175.04V174.24ZM159.098 174.24H163.858V175.58H159.098V174.24ZM162.978 174.24H164.578V174.86C164.578 175.88 164.578 177.84 163.738 180.46L162.138 180.22C162.978 177.6 162.978 175.86 162.978 174.86V174.24ZM159.738 185.08H171.978V191.32H159.738V185.08ZM170.358 186.4H161.358V189.98H170.358V186.4ZM189.517 173.48H191.177V191.56H189.517V173.48ZM176.797 176.4H187.637V177.74H176.797V176.4ZM182.237 179.22C184.837 179.22 186.717 180.94 186.717 183.38C186.717 185.82 184.837 187.54 182.237 187.54C179.637 187.54 177.777 185.82 177.777 183.38C177.777 180.94 179.637 179.22 182.237 179.22ZM182.237 180.6C180.577 180.6 179.357 181.74 179.357 183.38C179.357 185 180.577 186.16 182.237 186.16C183.897 186.16 185.117 185 185.117 183.38C185.117 181.74 183.897 180.6 182.237 180.6ZM181.377 173.66H183.037V177.22H181.377V173.66ZM201.57 174.98H203.23V177.68H208.91V174.98H210.55V183.12H201.57V174.98ZM203.23 179V181.76H208.91V179H203.23ZM205.23 182.64H206.89V186.86H205.23V182.64ZM212.83 173.48H214.49V191.56H212.83V173.48ZM214.01 181.06H217.35V182.46H214.01V181.06ZM200.63 187.86L200.39 186.46C203.65 186.46 208.01 186.44 211.69 185.94L211.83 187.16C208.01 187.82 203.79 187.88 200.63 187.86ZM226.549 175.26H227.989V176.02C227.989 179.26 224.549 181.64 220.909 182.26L220.269 180.94C223.449 180.48 226.549 178.4 226.549 176.02V175.26ZM226.969 175.26H228.389V176.02C228.389 178.4 231.509 180.48 234.669 180.94L234.049 182.26C230.389 181.64 226.969 179.26 226.969 176.02V175.26ZM226.609 184.66H228.249V191.56H226.609V184.66ZM219.309 183.78H235.649V185.14H219.309V183.78ZM220.829 174.6H234.069V175.94H220.829V174.6ZM251.207 173.46H252.887V191.58H251.207V173.46ZM247.307 177.4H252.107V178.78H247.307V177.4ZM247.307 181.9H252.107V183.3H247.307V181.9ZM242.667 175.04H244.007V178.26C244.007 182.32 241.887 186.2 239.027 187.74L237.967 186.42C240.627 185.1 242.667 181.62 242.667 178.26V175.04ZM242.987 175.04H244.327V178.26C244.327 181.58 246.367 184.9 248.987 186.14L247.987 187.48C245.087 185.98 242.987 182.24 242.987 178.26V175.04ZM265.725 179.6H270.765V180.96H265.725V179.6ZM261.365 175.04H262.725V178.26C262.725 182.32 260.585 186.2 257.725 187.74L256.665 186.42C259.325 185.1 261.365 181.62 261.365 178.26V175.04ZM261.685 175.04H263.025V178.26C263.025 181.56 265.065 184.84 267.685 186.08L266.705 187.42C263.785 185.94 261.685 182.22 261.685 178.26V175.04ZM269.945 173.46H271.585V191.58H269.945V173.46ZM288.239 178.84H289.879V181.6H288.239V178.84ZM287.999 174.58H289.459V175.14C289.459 177.86 286.099 179.6 282.299 179.96L281.759 178.7C285.019 178.44 287.999 177.04 287.999 175.14V174.58ZM288.719 174.58H290.159V175.14C290.159 177.02 293.139 178.44 296.399 178.7L295.859 179.96C292.079 179.6 288.719 177.86 288.719 175.14V174.58ZM282.399 174.04H295.779V175.34H282.399V174.04ZM282.419 184.7H295.739V186.02H282.419V184.7ZM280.899 180.98H297.299V182.32H280.899V180.98ZM289.079 186.9C292.559 186.9 294.499 187.72 294.499 189.28C294.499 190.86 292.559 191.66 289.079 191.66C285.599 191.66 283.639 190.86 283.639 189.28C283.639 187.72 285.599 186.9 289.079 186.9ZM289.079 188.04C286.679 188.04 285.339 188.46 285.339 189.28C285.339 190.1 286.679 190.52 289.079 190.52C291.459 190.52 292.819 190.1 292.819 189.28C292.819 188.46 291.459 188.04 289.079 188.04ZM288.259 183.04H289.899V185.54H288.259V183.04ZM304.657 174.54C307.377 174.54 309.377 176.28 309.377 178.8C309.377 181.32 307.377 183.06 304.657 183.06C301.937 183.06 299.937 181.32 299.937 178.8C299.937 176.28 301.937 174.54 304.657 174.54ZM304.657 175.94C302.857 175.94 301.557 177.1 301.557 178.8C301.557 180.5 302.857 181.66 304.657 181.66C306.457 181.66 307.757 180.5 307.757 178.8C307.757 177.1 306.457 175.94 304.657 175.94ZM311.977 173.48H313.637V183.78H311.977V173.48ZM313.177 177.8H316.317V179.18H313.177V177.8ZM303.937 184.58H305.217V185.56C305.217 187.94 303.757 190.34 301.157 191.34L300.317 190.1C302.597 189.26 303.937 187.3 303.937 185.56V184.58ZM304.297 184.58H305.537V185.56C305.537 187.4 306.597 189.36 308.797 190.24L308.077 191.5C305.457 190.48 304.297 187.98 304.297 185.56V184.58ZM310.617 184.58H311.857V185.56C311.857 187.7 310.677 190.4 308.077 191.5L307.357 190.24C309.537 189.26 310.617 187.14 310.617 185.56V184.58ZM310.937 184.58H312.237V185.56C312.237 187.44 313.557 189.32 315.837 190.1L315.017 191.34C312.377 190.38 310.937 188.08 310.937 185.56V184.58ZM323.136 174.86C325.756 174.86 327.636 177.32 327.636 181.16C327.636 185.02 325.756 187.48 323.136 187.48C320.496 187.48 318.636 185.02 318.636 181.16C318.636 177.32 320.496 174.86 323.136 174.86ZM323.136 176.36C321.396 176.36 320.216 178.24 320.216 181.16C320.216 184.1 321.396 186.02 323.136 186.02C324.876 186.02 326.056 184.1 326.056 181.16C326.056 178.24 324.876 176.36 323.136 176.36ZM331.556 173.46H333.196V191.58H331.556V173.46ZM327.096 180.36H332.276V181.72H327.096V180.36ZM341.014 182.78H342.654V188.2H341.014V182.78ZM347.694 182.78H349.354V188.2H347.694V182.78ZM337.014 187.88H353.394V189.26H337.014V187.88ZM345.174 174.62C348.994 174.62 351.734 176.44 351.734 179.28C351.734 182.1 348.994 183.92 345.174 183.92C341.334 183.92 338.594 182.1 338.594 179.28C338.594 176.44 341.334 174.62 345.174 174.62ZM345.174 175.94C342.274 175.94 340.194 177.26 340.194 179.28C340.194 181.28 342.274 182.6 345.174 182.6C348.074 182.6 350.134 181.28 350.134 179.28C350.134 177.26 348.074 175.94 345.174 175.94ZM355.972 190V187.96H358.012V190H355.972ZM379.198 173.46H380.858V191.58H379.198V173.46ZM367.098 175H368.738V179.78H373.958V175H375.618V187.22H367.098V175ZM368.738 181.1V185.86H373.958V181.1H368.738ZM388.797 179.6H390.437V183.02H388.797V179.6ZM395.437 179.6H397.077V183.02H395.437V179.6ZM384.757 182.42H401.097V183.76H384.757V182.42ZM392.917 185.12C396.797 185.12 399.117 186.26 399.117 188.32C399.117 190.38 396.797 191.54 392.917 191.54C389.037 191.54 386.717 190.38 386.717 188.32C386.717 186.26 389.037 185.12 392.917 185.12ZM392.917 186.4C390.097 186.4 388.397 187.1 388.397 188.32C388.397 189.56 390.097 190.24 392.917 190.24C395.757 190.24 397.437 189.56 397.437 188.32C397.437 187.1 395.757 186.4 392.917 186.4ZM392.937 173.8C396.857 173.8 399.297 175.06 399.297 177.18C399.297 179.28 396.857 180.52 392.937 180.52C388.997 180.52 386.577 179.28 386.577 177.18C386.577 175.06 388.997 173.8 392.937 173.8ZM392.937 175.1C390.057 175.1 388.277 175.86 388.277 177.18C388.277 178.48 390.057 179.24 392.937 179.24C395.817 179.24 397.597 178.48 397.597 177.18C397.597 175.86 395.817 175.1 392.937 175.1ZM416.595 173.46H418.255V191.58H416.595V173.46ZM408.715 174.86C411.395 174.86 413.315 177.32 413.315 181.16C413.315 185.02 411.395 187.48 408.715 187.48C406.055 187.48 404.135 185.02 404.135 181.16C404.135 177.32 406.055 174.86 408.715 174.86ZM408.715 176.36C406.955 176.36 405.715 178.24 405.715 181.16C405.715 184.1 406.955 186.02 408.715 186.02C410.495 186.02 411.715 184.1 411.715 181.16C411.715 178.24 410.495 176.36 408.715 176.36ZM427.688 187.86H444.068V189.24H427.688V187.86ZM435.048 183.48H436.688V188.32H435.048V183.48ZM435.008 175.76H436.408V176.88C436.408 180.58 432.708 183.38 429.148 184.12L428.468 182.8C431.588 182.28 435.008 179.74 435.008 176.88V175.76ZM435.308 175.76H436.708V176.88C436.708 179.74 440.148 182.22 443.308 182.74L442.648 184.06C439.028 183.34 435.308 180.58 435.308 176.88V175.76ZM429.028 175.12H442.688V176.48H429.028V175.12ZM448.467 174.42H460.107V175.78H448.467V174.42ZM446.387 181.08H462.767V182.44H446.387V181.08ZM459.027 174.42H460.647V175.76C460.647 177.3 460.647 179.06 460.047 181.56L458.427 181.48C459.027 179 459.027 177.26 459.027 175.76V174.42ZM448.387 184.9H460.707V191.32H448.387V184.9ZM459.087 186.22H450.007V189.98H459.087V186.22ZM483.72 173.46H485.38V191.58H483.72V173.46ZM471.62 175H473.26V179.78H478.48V175H480.14V187.22H471.62V175ZM473.26 181.1V185.86H478.48V181.1H473.26ZM501.878 173.48H503.538V191.56H501.878V173.48ZM502.738 180.56H506.078V181.96H502.738V180.56ZM491.818 175.08H493.058V179.14C493.058 182.02 492.378 185.66 490.118 187.42L489.018 186.24C491.218 184.62 491.818 181.46 491.818 179.14V175.08ZM492.178 175.08H493.378V179.14C493.378 181.3 493.818 184.64 496.038 186.36L495.118 187.62C492.678 185.8 492.178 181.84 492.178 179.14V175.08ZM496.838 175.08H498.058V179.14C498.058 181.96 497.538 185.84 495.118 187.62L494.198 186.36C496.398 184.68 496.838 181.44 496.838 179.14V175.08ZM497.198 175.08H498.438V179.14C498.438 181.54 499.018 184.64 501.238 186.24L500.198 187.46C497.838 185.72 497.198 182.1 497.198 179.14V175.08ZM152.14 195.48H153.8V208.62H152.14V195.48ZM146.82 196.84H148.56C148.56 201.54 145.26 205.02 139.96 206.68L139.28 205.32C143.94 203.9 146.82 201.08 146.82 197.54V196.84ZM140.24 196.84H147.76V198.22H140.24V196.84ZM142.08 211.8H154.26V213.18H142.08V211.8ZM142.08 207.56H143.74V212.3H142.08V207.56ZM175.453 195.48H177.113V213.56H175.453V195.48ZM176.713 202.9H180.073V204.3H176.713V202.9ZM163.113 198.36H173.773V199.72H163.113V198.36ZM168.513 201.22C171.073 201.22 172.913 202.94 172.913 205.38C172.913 207.82 171.073 209.54 168.513 209.54C165.973 209.54 164.113 207.82 164.113 205.38C164.113 202.94 165.973 201.22 168.513 201.22ZM168.513 202.6C166.873 202.6 165.693 203.74 165.693 205.38C165.693 207 166.873 208.16 168.513 208.16C170.153 208.16 171.333 207 171.333 205.38C171.333 203.74 170.153 202.6 168.513 202.6ZM167.653 195.7H169.313V198.98H167.653V195.7ZM186.692 198.06H188.032V201C188.032 204.82 185.732 208.66 182.852 210.08L181.892 208.76C184.512 207.52 186.692 204.12 186.692 201V198.06ZM187.012 198.06H188.352V201C188.352 204.06 190.532 207.18 193.192 208.32L192.252 209.64C189.332 208.28 187.012 204.76 187.012 201V198.06ZM182.492 197.32H192.592V198.72H182.492V197.32ZM195.032 195.48H196.692V213.56H195.032V195.48ZM201.35 197.1H209.65V205.48H201.35V197.1ZM208.03 198.44H202.97V204.14H208.03V198.44ZM212.97 195.46H214.63V208.72H212.97V195.46ZM214.11 200.98H217.31V202.36H214.11V200.98ZM203.37 211.8H215.45V213.16H203.37V211.8ZM203.37 207.46H205.03V212.38H203.37V207.46ZM220.409 214.28L219.649 213.7C220.009 213.327 220.242 212.973 220.349 212.64C220.469 212.32 220.529 211.993 220.529 211.66L220.889 212H219.569V209.96H221.609V211.4C221.609 211.933 221.522 212.433 221.349 212.9C221.175 213.38 220.862 213.84 220.409 214.28ZM231.434 197.4H243.074V198.74H231.434V197.4ZM229.674 209.54H246.014V210.92H229.674V209.54ZM242.194 197.4H243.814V199.2C243.814 201.52 243.814 204.1 243.134 208L241.474 207.84C242.194 204.14 242.194 201.44 242.194 199.2V197.4ZM249.113 197.1H257.413V205.48H249.113V197.1ZM255.793 198.44H250.733V204.14H255.793V198.44ZM260.733 195.46H262.393V208.72H260.733V195.46ZM261.873 200.98H265.073V202.36H261.873V200.98ZM251.133 211.8H263.213V213.16H251.133V211.8ZM251.133 207.46H252.793V212.38H251.133V207.46ZM269.151 196.24H280.791V197.6H269.151V196.24ZM267.051 203.74H283.451V205.1H267.051V203.74ZM279.711 196.24H281.331V197.72C281.331 199.42 281.331 201.44 280.731 204.26L279.111 204.06C279.711 201.36 279.711 199.4 279.711 197.72V196.24ZM280.171 199.7V200.94L268.931 201.44L268.691 200.08L280.171 199.7ZM269.071 207.18H281.391V213.32H269.071V207.18ZM279.771 208.5H270.691V211.98H279.771V208.5ZM298.604 200.84H300.244V203.6H298.604V200.84ZM298.364 196.58H299.824V197.14C299.824 199.86 296.464 201.6 292.664 201.96L292.124 200.7C295.384 200.44 298.364 199.04 298.364 197.14V196.58ZM299.084 196.58H300.524V197.14C300.524 199.02 303.504 200.44 306.764 200.7L306.224 201.96C302.444 201.6 299.084 199.86 299.084 197.14V196.58ZM292.764 196.04H306.144V197.34H292.764V196.04ZM292.784 206.7H306.104V208.02H292.784V206.7ZM291.264 202.98H307.664V204.32H291.264V202.98ZM299.444 208.9C302.924 208.9 304.864 209.72 304.864 211.28C304.864 212.86 302.924 213.66 299.444 213.66C295.964 213.66 294.004 212.86 294.004 211.28C294.004 209.72 295.964 208.9 299.444 208.9ZM299.444 210.04C297.044 210.04 295.704 210.46 295.704 211.28C295.704 212.1 297.044 212.52 299.444 212.52C301.824 212.52 303.184 212.1 303.184 211.28C303.184 210.46 301.824 210.04 299.444 210.04ZM298.624 205.04H300.264V207.54H298.624V205.04ZM312.043 206.32H313.683V208.42H322.523V206.32H324.183V213.32H312.043V206.32ZM313.683 209.7V211.98H322.523V209.7H313.683ZM309.963 203.72H326.303V205.06H309.963V203.72ZM317.303 195.68H318.723V196.48C318.723 199.62 315.223 201.88 311.503 202.44L310.903 201.14C314.163 200.7 317.303 198.76 317.303 196.48V195.68ZM317.563 195.68H318.983V196.48C318.983 198.72 322.163 200.7 325.383 201.14L324.763 202.44C321.083 201.88 317.563 199.58 317.563 196.48V195.68ZM341.821 195.48H343.481V213.56H341.821V195.48ZM329.821 197.24H331.461V208.44H329.821V197.24ZM329.821 207.46H331.301C334.041 207.46 336.901 207.26 339.961 206.62L340.161 208.04C337.021 208.68 334.161 208.9 331.301 208.9H329.821V207.46ZM359.6 195.46H361.28V213.58H359.6V195.46ZM360.88 202.6H364.24V204H360.88V202.6ZM348.14 207.68H349.56C352.9 207.68 355.24 207.56 357.94 207.06L358.12 208.46C355.34 208.98 352.96 209.08 349.56 209.08H348.14V207.68ZM348.14 197.22H356.54V198.58H349.78V208.3H348.14V197.22ZM373.893 200.92H385.873V202.3H373.893V200.92ZM379.893 203.58C382.453 203.58 384.333 204.94 384.333 206.88C384.333 208.82 382.453 210.18 379.893 210.18C377.333 210.18 375.433 208.82 375.433 206.88C375.433 204.94 377.333 203.58 379.893 203.58ZM379.893 204.98C378.313 204.98 377.133 205.76 377.133 206.88C377.133 208 378.313 208.78 379.893 208.78C381.453 208.78 382.653 208 382.653 206.88C382.653 205.76 381.453 204.98 379.893 204.98ZM379.053 198.48H380.713V202.06H379.053V198.48ZM392.591 200.92H404.571V202.3H392.591V200.92ZM398.591 203.58C401.151 203.58 403.031 204.94 403.031 206.88C403.031 208.82 401.151 210.18 398.591 210.18C396.031 210.18 394.131 208.82 394.131 206.88C394.131 204.94 396.031 203.58 398.591 203.58ZM398.591 204.98C397.011 204.98 395.831 205.76 395.831 206.88C395.831 208 397.011 208.78 398.591 208.78C400.151 208.78 401.351 208 401.351 206.88C401.351 205.76 400.151 204.98 398.591 204.98ZM397.751 198.48H399.411V202.06H397.751V198.48ZM411.29 200.92H423.27V202.3H411.29V200.92ZM417.29 203.58C419.85 203.58 421.73 204.94 421.73 206.88C421.73 208.82 419.85 210.18 417.29 210.18C414.73 210.18 412.83 208.82 412.83 206.88C412.83 204.94 414.73 203.58 417.29 203.58ZM417.29 204.98C415.71 204.98 414.53 205.76 414.53 206.88C414.53 208 415.71 208.78 417.29 208.78C418.85 208.78 420.05 208 420.05 206.88C420.05 205.76 418.85 204.98 417.29 204.98ZM416.45 198.48H418.11V202.06H416.45V198.48ZM429.988 200.92H441.968V202.3H429.988V200.92ZM435.988 203.58C438.548 203.58 440.428 204.94 440.428 206.88C440.428 208.82 438.548 210.18 435.988 210.18C433.428 210.18 431.528 208.82 431.528 206.88C431.528 204.94 433.428 203.58 435.988 203.58ZM435.988 204.98C434.408 204.98 433.228 205.76 433.228 206.88C433.228 208 434.408 208.78 435.988 208.78C437.548 208.78 438.748 208 438.748 206.88C438.748 205.76 437.548 204.98 435.988 204.98ZM435.148 198.48H436.808V202.06H435.148V198.48ZM448.687 200.92H460.667V202.3H448.687V200.92ZM454.687 203.58C457.247 203.58 459.127 204.94 459.127 206.88C459.127 208.82 457.247 210.18 454.687 210.18C452.127 210.18 450.227 208.82 450.227 206.88C450.227 204.94 452.127 203.58 454.687 203.58ZM454.687 204.98C453.107 204.98 451.927 205.76 451.927 206.88C451.927 208 453.107 208.78 454.687 208.78C456.247 208.78 457.447 208 457.447 206.88C457.447 205.76 456.247 204.98 454.687 204.98ZM453.847 198.48H455.507V202.06H453.847V198.48Z" fill="black"/>
<rect x="453" width="110" height="34" rx="17" fill="#F4F4F4"/>
<path d="M485.366 19.215H487.346V24.225H485.366V19.215ZM480.101 18.63H492.656V20.25H480.101V18.63ZM485.351 12.81H487.106V13.14C487.106 15.465 485.096 17.49 481.421 17.925L480.731 16.365C483.866 16.005 485.351 14.43 485.351 13.14V12.81ZM485.606 12.81H487.361V13.14C487.361 14.4 488.861 16.005 491.981 16.365L491.276 17.925C487.616 17.505 485.606 15.405 485.606 13.14V12.81ZM481.226 11.91H491.516V13.485H481.226V11.91ZM485.366 10.35H487.346V12.45H485.366V10.35ZM497.205 13.035H498.825V13.575C498.825 16.11 497.595 18.375 494.955 19.2L493.995 17.64C496.245 16.935 497.205 15.255 497.205 13.575V13.035ZM497.565 13.035H499.2V13.575C499.2 15.135 500.175 16.74 502.425 17.415L501.465 18.975C498.84 18.195 497.565 16.005 497.565 13.575V13.035ZM494.475 11.955H501.93V13.515H494.475V11.955ZM497.205 10.425H499.2V12.54H497.205V10.425ZM501.495 14.355H504.72V15.99H501.495V14.355ZM503.715 10.335H505.71V20.61H503.715V10.335ZM496.545 22.38H506.025V23.97H496.545V22.38ZM496.545 19.755H498.54V23.43H496.545V19.755ZM513.349 10.68H515.059V11.115C515.059 13.68 513.004 15.855 509.464 16.395L508.714 14.835C511.789 14.4 513.349 12.69 513.349 11.115V10.68ZM513.679 10.68H515.389V11.115C515.389 12.645 516.949 14.37 520.009 14.79L519.274 16.35C515.734 15.825 513.679 13.65 513.679 11.115V10.68ZM508.084 17.145H520.654V18.735H508.084V17.145ZM513.529 18.15H515.539V21.075H513.529V18.15ZM509.539 22.38H519.274V23.97H509.539V22.38ZM509.539 19.905H511.519V22.875H509.539V19.905Z" fill="black"/>
<path d="M536.346 21.9585L543.308 11.8647H529.385L536.346 21.9585Z" fill="black"/>
<rect x="453" y="72" width="75" height="32" rx="16" fill="#F4F4F4"/>
<path d="M491.817 89.584H493.665V94.26H491.817V89.584ZM486.903 89.038H498.621V90.55H486.903V89.038ZM491.803 83.606H493.441V83.914C493.441 86.084 491.565 87.974 488.135 88.38L487.491 86.924C490.417 86.588 491.803 85.118 491.803 83.914V83.606ZM492.041 83.606H493.679V83.914C493.679 85.09 495.079 86.588 497.991 86.924L497.333 88.38C493.917 87.988 492.041 86.028 492.041 83.914V83.606ZM487.953 82.766H497.557V84.236H487.953V82.766ZM491.817 81.31H493.665V83.27H491.817V81.31ZM502.88 83.816H504.392V84.32C504.392 86.686 503.244 88.8 500.78 89.57L499.884 88.114C501.984 87.456 502.88 85.888 502.88 84.32V83.816ZM503.216 83.816H504.742V84.32C504.742 85.776 505.652 87.274 507.752 87.904L506.856 89.36C504.406 88.632 503.216 86.588 503.216 84.32V83.816ZM500.332 82.808H507.29V84.264H500.332V82.808ZM502.88 81.38H504.742V83.354H502.88V81.38ZM506.884 85.048H509.894V86.574H506.884V85.048ZM508.956 81.296H510.818V90.886H508.956V81.296ZM502.264 92.538H511.112V94.022H502.264V92.538ZM502.264 90.088H504.126V93.518H502.264V90.088Z" fill="black"/>
<circle cx="548" cy="87" r="15" fill="#F4F4F4"/>
<path d="M465.708 93.8752H468.542V85.3752H465.708V93.8752ZM481.292 86.0835C481.292 85.3043 480.654 84.6668 479.875 84.6668H475.405L476.078 81.4297L476.1 81.2031C476.1 80.9127 475.979 80.6435 475.788 80.4522L475.037 79.7085L470.376 84.3764C470.114 84.6314 469.958 84.9856 469.958 85.3752V92.4585C469.958 93.2377 470.596 93.8752 471.375 93.8752H477.75C478.338 93.8752 478.841 93.521 479.053 93.011L481.192 88.0172C481.256 87.8543 481.292 87.6843 481.292 87.5002V86.1472L481.285 86.1402L481.292 86.0835Z" fill="black" fill-opacity="0.87"/>
<path d="M547.083 89.7502H548.917V91.5835H547.083V89.7502ZM547.083 82.4168H548.917V87.9168H547.083V82.4168ZM547.991 77.8335C542.931 77.8335 538.833 81.9402 538.833 87.0002C538.833 92.0602 542.931 96.1668 547.991 96.1668C553.06 96.1668 557.167 92.0602 557.167 87.0002C557.167 81.9402 553.06 77.8335 547.991 77.8335ZM548 94.3335C543.948 94.3335 540.667 91.0518 540.667 87.0002C540.667 82.9485 543.948 79.6668 548 79.6668C552.052 79.6668 555.333 82.9485 555.333 87.0002C555.333 91.0518 552.052 94.3335 548 94.3335Z" fill="black" fill-opacity="0.87"/>
</svg>
