<svg width="60" height="60" viewBox="0 0 60 60" fill="none" xmlns="http://www.w3.org/2000/svg">
<path d="M0 10C0 4.47715 4.47715 0 10 0H50C55.5228 0 60 4.47715 60 10V50C60 55.5228 55.5228 60 50 60H10C4.47715 60 0 55.5228 0 50V10Z" fill="#F1F1F1"/>
<path d="M28.79 40.27C27.35 40.27 25.97 40.06 24.65 39.64C23.33 39.2 22.23 38.58 21.35 37.78L22.43 35.41C23.41 36.17 24.41 36.73 25.43 37.09C26.45 37.45 27.54 37.63 28.7 37.63C30.18 37.63 31.3 37.32 32.06 36.7C32.84 36.08 33.23 35.19 33.23 34.03C33.23 32.89 32.84 32.03 32.06 31.45C31.3 30.85 30.17 30.55 28.67 30.55H25.4V28.03H28.43C29.71 28.03 30.73 27.71 31.49 27.07C32.25 26.41 32.63 25.52 32.63 24.4C32.63 23.38 32.28 22.6 31.58 22.06C30.88 21.5 29.88 21.22 28.58 21.22C26.38 21.22 24.45 21.99 22.79 23.53L21.74 21.16C22.56 20.34 23.6 19.71 24.86 19.27C26.12 18.81 27.44 18.58 28.82 18.58C30.94 18.58 32.61 19.07 33.83 20.05C35.05 21.01 35.66 22.35 35.66 24.07C35.66 25.37 35.29 26.48 34.55 27.4C33.83 28.32 32.84 28.93 31.58 29.23V28.9C33.08 29.14 34.23 29.74 35.03 30.7C35.85 31.64 36.26 32.82 36.26 34.24C36.26 36.12 35.59 37.6 34.25 38.68C32.93 39.74 31.11 40.27 28.79 40.27Z" fill="#485153"/>
</svg>
