<svg width="60" height="60" viewBox="0 0 60 60" fill="none" xmlns="http://www.w3.org/2000/svg">
<path d="M0 10C0 4.47715 4.47715 0 10 0H50C55.5228 0 60 4.47715 60 10V50C60 55.5228 55.5228 60 50 60H10C4.47715 60 0 55.5228 0 50V10Z" fill="#F1F1F1"/>
<path d="M23.49 40V37.69L30.75 30.1C31.69 29.12 32.39 28.2 32.85 27.34C33.31 26.48 33.54 25.59 33.54 24.67C33.54 23.53 33.18 22.67 32.46 22.09C31.76 21.51 30.74 21.22 29.4 21.22C28.34 21.22 27.34 21.41 26.4 21.79C25.48 22.17 24.59 22.75 23.73 23.53L22.65 21.16C23.49 20.38 24.53 19.76 25.77 19.3C27.03 18.82 28.36 18.58 29.76 18.58C31.96 18.58 33.65 19.08 34.83 20.08C36.03 21.08 36.63 22.51 36.63 24.37C36.63 25.69 36.31 26.96 35.67 28.18C35.03 29.38 34.07 30.62 32.79 31.9L26.52 38.23V37.39H37.5V40H23.49Z" fill="#485153"/>
</svg>
