<svg width="40" height="40" viewBox="0 0 40 40" fill="none" xmlns="http://www.w3.org/2000/svg">
<path d="M15.0002 19.5833C13.8502 19.5833 12.9168 20.5167 12.9168 21.6667C12.9168 22.8167 13.8502 23.75 15.0002 23.75C16.1502 23.75 17.0835 22.8167 17.0835 21.6667C17.0835 20.5167 16.1502 19.5833 15.0002 19.5833ZM25.0002 19.5833C23.8502 19.5833 22.9168 20.5167 22.9168 21.6667C22.9168 22.8167 23.8502 23.75 25.0002 23.75C26.1502 23.75 27.0835 22.8167 27.0835 21.6667C27.0835 20.5167 26.1502 19.5833 25.0002 19.5833ZM20.0002 3.33334C10.8002 3.33334 3.3335 10.8 3.3335 20C3.3335 29.2 10.8002 36.6667 20.0002 36.6667C29.2002 36.6667 36.6668 29.2 36.6668 20C36.6668 10.8 29.2002 3.33334 20.0002 3.33334ZM20.0002 33.3333C12.6502 33.3333 6.66683 27.35 6.66683 20C6.66683 19.5167 6.70016 19.0333 6.75016 18.5667C10.6835 16.8167 13.8002 13.6 15.4335 9.61668C18.4502 13.8833 23.4168 16.6667 29.0335 16.6667C30.3335 16.6667 31.5835 16.5167 32.7835 16.2333C33.1335 17.4167 33.3335 18.6833 33.3335 20C33.3335 27.35 27.3502 33.3333 20.0002 33.3333Z" fill="black" fill-opacity="0.87"/>
</svg>
